<svg width="40" height="40" viewBox="0 0 40 40" fill="none" xmlns="http://www.w3.org/2000/svg">
<rect width="40" height="40" rx="10" fill="#132F63"/>
<path d="M20.5 12.5V8.75C20.5 8.336 20.164 8 19.75 8C19.336 8 19 8.336 19 8.75V12.5C15.6865 12.5 13 15.1865 13 18.5V26C13 29.3135 15.6865 32 19 32H20.5C23.8135 32 26.5 29.3135 26.5 26V18.5C26.5 15.1865 23.8135 12.5 20.5 12.5ZM20.5 18.5C20.5 18.914 20.164 19.25 19.75 19.25C19.336 19.25 19 18.914 19 18.5V15.5C19 15.086 19.336 14.75 19.75 14.75C20.164 14.75 20.5 15.086 20.5 15.5V18.5Z" fill="white"/>
</svg>
