<svg width="897" height="897" viewBox="0 0 897 897" fill="none" xmlns="http://www.w3.org/2000/svg">
<g clip-path="url(#clip0_611_5925)">
<path d="M440.749 3.03711C438.388 5.81489 440.054 11.6482 443.526 12.7593C449.638 14.7038 454.638 7.06489 450.193 2.62045C447.832 0.259336 442.832 0.537114 440.749 3.03711Z" fill="#F8F8FA"/>
<path d="M465.749 3.73256C460.471 9.01033 467.693 16.7882 473.526 12.0659C476.304 9.56589 475.887 4.14922 472.832 2.34367C469.221 0.538112 468.943 0.538112 465.749 3.73256Z" fill="#F8F8FA"/>
<path d="M417.693 4.28934C417.276 5.40045 417.137 7.76156 417.415 9.56711C417.693 12.206 418.665 12.7615 422.693 12.7615C427.276 12.7615 427.554 12.4837 427.554 7.90045C427.554 3.456 427.137 3.03934 422.971 2.62267C420.054 2.34489 418.248 2.90045 417.693 4.28934Z" fill="#F8F8FA"/>
<path d="M395.332 4.56885C392.832 5.67996 393.11 12.7633 395.61 14.8466C397.276 16.2355 398.526 16.2355 401.304 14.9855C404.221 13.7355 404.776 12.6244 404.36 8.8744C404.082 5.26329 403.248 4.42996 400.471 4.15218C398.526 4.01329 396.165 4.29107 395.332 4.56885Z" fill="#F8F8FA"/>
<path d="M488.526 5.67606C488.109 6.78717 487.97 9.14828 488.248 10.9538C488.526 13.5927 489.498 14.1482 493.526 14.1482C498.109 14.1482 498.387 13.8705 498.387 9.28717C498.387 4.84272 497.97 4.42606 493.804 4.00939C490.887 3.73161 489.081 4.28717 488.526 5.67606Z" fill="#F8F8FA"/>
<path d="M371.581 8.17816C367.831 11.9282 370.609 19.0115 375.609 19.0115C378.526 19.0115 382.415 15.4004 382.415 12.7615C382.415 7.90039 375.054 4.70594 371.581 8.17816Z" fill="#F8F8FA"/>
<path d="M512.554 7.48297C511.999 7.89964 511.582 10.1219 511.582 12.2052C511.582 17.0663 515.749 19.8441 519.915 17.6219C523.388 15.8163 523.804 8.59408 520.471 7.34408C517.554 6.23297 513.665 6.23297 512.554 7.48297Z" fill="#F8F8FA"/>
<path d="M348.526 12.9019C344.359 17.0686 346.721 23.1797 352.554 23.1797C358.387 23.1797 360.748 17.0686 356.582 12.9019C355.471 11.6519 353.526 10.6797 352.554 10.6797C351.582 10.6797 349.637 11.6519 348.526 12.9019Z" fill="#F8F8FA"/>
<path d="M535.193 12.763C534.22 13.8741 533.804 16.2352 534.359 18.1797C535.887 24.4297 544.22 24.4297 545.748 18.1797C546.859 14.013 544.22 10.6797 540.054 10.6797C538.387 10.6797 536.165 11.6519 535.193 12.763Z" fill="#F8F8FA"/>
<path d="M558.388 17.2067C556.582 18.8733 557.416 25.54 559.499 27.3456C562.971 30.2622 568.527 26.9289 568.527 21.9289C568.527 17.9011 566.582 16.2344 561.721 16.2344C560.332 16.2344 558.805 16.6511 558.388 17.2067Z" fill="#F8F8FA"/>
<path d="M324.637 19.5666C324.22 20.6778 324.082 23.0389 324.359 24.8444C324.637 27.4833 325.609 28.0389 329.637 28.0389C334.22 28.0389 334.498 27.7611 334.498 23.1778C334.498 18.7333 334.082 18.3166 329.915 17.9C326.998 17.6222 325.193 18.1778 324.637 19.5666Z" fill="#F8F8FA"/>
<path d="M424.777 23.3158C302.415 28.5936 185.471 89.7047 109.36 188.455C63.9433 247.344 35.1933 316.649 24.4988 392.621C21.4433 414.427 21.0266 476.233 23.8044 498.177C29.9155 547.344 43.1099 591.649 65.0544 636.372C123.249 755.399 233.388 840.122 363.665 866.094C391.999 871.788 412.277 873.594 446.999 873.594C482.693 873.594 502.277 871.788 533.11 865.538C660.332 839.844 770.749 754.705 828.249 637.899C846.304 600.955 856.721 570.816 864.36 532.899C902.415 343.733 810.054 153.872 637.971 67.7603C570.193 33.8714 503.804 19.9825 424.777 23.3158ZM497.554 33.5936C576.027 43.5936 646.304 73.3158 708.804 123.038C724.36 135.26 757.415 168.038 769.499 182.899C803.527 225.122 829.221 272.066 844.638 320.399C851.027 340.26 856.304 362.344 855.054 363.455C852.971 365.121 761.304 398.455 760.61 397.76C760.193 397.344 758.388 389.566 756.443 380.538C748.943 344.566 731.582 303.733 710.61 272.483C659.36 196.233 581.582 147.622 488.665 134.149C472.277 131.649 421.721 131.649 405.332 134.149C339.638 143.733 285.61 168.594 236.304 211.788C186.999 254.705 151.165 316.51 137.277 381.927C135.471 390.26 133.804 397.344 133.388 397.76C132.693 398.455 41.0266 365.121 38.9433 363.455C36.5822 361.372 50.1933 314.705 60.4711 290.122C122.415 141.094 262.138 41.2325 423.388 30.9547C438.527 29.9825 481.165 31.5103 497.554 33.5936ZM494.915 143.316C582.693 158.316 656.027 205.816 704.777 279.288C729.36 316.372 745.61 359.01 752.693 405.121C756.027 427.066 756.165 469.427 752.832 491.233C739.082 580.955 690.193 657.622 615.471 706.649C524.082 766.51 407.693 773.177 309.638 724.288C229.777 684.566 170.471 611.51 148.527 525.816C141.027 496.788 138.804 479.149 138.804 448.872C138.804 418.455 141.166 399.01 148.388 371.094C179.499 249.844 282.832 158.733 408.11 142.066C427.971 139.427 476.165 139.983 494.915 143.316ZM93.2488 392.76L132.554 407.205L131.582 418.316C130.749 427.76 130.749 451.094 131.582 484.01L131.721 491.51L84.6377 508.872C50.1933 521.51 37.2766 525.816 36.5822 524.566C36.0266 523.594 34.36 514.566 32.9711 504.566C29.2211 478.733 29.2211 417.622 32.9711 391.927C34.36 381.927 35.7488 373.455 36.1655 372.899C36.4433 372.344 40.6099 373.316 45.3322 375.121C50.0544 376.788 71.5822 384.844 93.2488 392.76ZM860.888 390.538C864.082 412.344 865.193 463.733 863.11 486.372C861.443 504.566 858.388 524.149 856.999 525.399C856.582 525.816 835.054 518.316 809.221 508.872L762.277 491.51L762.415 484.705C763.388 457.76 763.249 425.122 762.415 416.927L761.443 407.205L809.082 389.705C835.332 379.983 857.138 372.483 857.554 373.038C858.11 373.455 859.638 381.371 860.888 390.538ZM135.193 504.149C135.193 509.983 144.638 544.705 150.332 559.705C192.415 671.788 294.082 750.399 413.249 763.316C430.61 765.26 463.388 765.26 480.749 763.316C558.665 754.844 631.721 717.483 683.527 659.288C720.193 618.177 746.304 566.372 757.277 513.038C759.082 504.01 760.471 500.399 761.721 500.677C763.527 501.094 854.915 534.427 855.61 534.844C856.443 535.538 847.138 569.149 841.582 584.983C806.721 686.649 730.749 773.177 633.665 821.788C526.999 875.26 402.971 880.538 292.832 836.372C178.804 790.538 91.9988 699.288 51.5822 582.899C47.6933 571.788 37.6933 535.399 38.3877 534.983C40.4711 533.455 133.388 499.983 134.221 500.538C134.777 500.816 135.193 502.483 135.193 504.149Z" fill="#F8F8FA"/>
<path d="M388.665 53.8736C383.387 54.568 375.609 55.4014 371.72 55.818C364.498 56.6514 364.359 56.7903 364.359 61.0958C364.359 69.2903 365.748 71.7903 370.054 71.7903C372.97 71.7903 374.082 72.4847 374.082 74.1514C374.22 75.5403 375.054 83.318 376.026 91.5125L377.693 106.374L373.804 107.207C370.47 108.04 369.915 108.874 369.915 112.485C369.915 120.262 371.165 120.957 383.248 119.846C405.193 118.04 406.026 117.762 406.026 113.457C406.026 107.762 404.637 105.124 401.859 105.124C400.193 105.124 399.082 103.596 398.526 100.262C397.276 94.1514 398.248 92.6236 403.109 92.6236C406.026 92.6236 408.109 94.0125 410.748 97.3458C414.915 102.901 415.193 103.735 412.137 103.735C410.47 103.735 410.193 104.985 410.47 109.568L410.887 115.54L421.304 115.401C426.998 115.401 435.887 114.846 441.026 114.29C451.443 113.179 450.748 114.29 448.387 103.04C447.832 100.401 446.72 99.568 443.804 99.568C441.026 99.568 438.526 97.7625 434.082 92.6236L427.97 85.5403L432.276 80.6791C435.748 76.7903 436.582 74.7069 436.582 69.2903C436.582 56.5125 429.915 52.2069 410.609 52.4847C403.943 52.6236 394.082 53.1791 388.665 53.8736ZM407.97 68.4569C413.109 70.4014 408.526 75.9569 400.193 77.9014C396.582 78.7347 396.304 78.4569 396.304 74.0125C396.304 71.3736 397.137 68.8736 398.109 68.5958C400.609 67.4847 405.47 67.4847 407.97 68.4569Z" fill="#F8F8FA"/>
<path d="M506.304 61.2316C504.221 64.7038 498.526 74.9816 493.526 84.1482C485.332 99.2871 484.082 100.815 480.332 101.232C476.304 101.648 476.165 101.926 476.165 108.593V115.398L494.221 118.454C504.221 120.121 512.415 121.371 512.415 121.232C512.554 121.232 512.971 117.76 513.526 113.732C514.359 107.204 514.221 106.51 511.721 106.51C510.193 106.51 508.526 105.815 507.971 104.982C506.304 102.065 509.498 101.232 516.721 102.621C522.415 103.732 523.943 104.704 524.359 107.065C524.915 109.704 524.498 110.121 521.721 109.565C518.665 109.01 518.526 109.287 518.526 116.648V124.148L530.748 126.371C537.415 127.621 545.471 129.01 548.665 129.565L554.359 130.398L555.332 124.148C556.443 117.065 555.609 114.843 551.998 114.843C550.054 114.843 548.387 109.982 542.693 88.176L535.887 61.3705L527.554 59.1482C510.054 54.5649 510.609 54.426 506.304 61.2316ZM521.165 88.0371C521.304 89.0093 519.776 89.8427 517.832 89.8427C513.665 89.8427 513.665 89.426 516.721 84.7038C518.943 81.5093 519.082 81.3705 520.054 83.7316C520.609 85.2593 521.165 87.2038 521.165 88.0371Z" fill="#F8F8FA"/>
<path d="M300.887 74.5679C285.609 81.7901 285.47 81.929 281.998 95.4012C281.165 98.8735 280.47 101.79 280.331 101.929C280.331 102.068 276.581 100.401 271.998 98.179C267.415 95.9568 262.831 94.0123 261.72 94.0123C258.248 94.0123 233.804 106.373 233.804 108.179C233.804 109.151 235.331 112.484 236.998 115.54C240.054 120.957 241.859 121.651 246.304 119.845C247.97 119.151 250.193 122.623 255.887 133.873C262.693 147.623 263.109 148.873 260.748 150.54C259.498 151.512 257.831 152.484 257.137 152.623C255.609 153.179 261.443 166.234 263.109 166.234C264.637 166.234 299.081 149.707 299.081 149.012C299.081 148.457 293.804 138.873 292.693 137.207C292.415 136.929 290.47 137.345 288.248 138.179C284.359 139.568 284.22 139.429 279.915 130.679C277.415 125.679 275.47 121.373 275.47 121.095C275.47 120.679 277.415 121.373 279.776 122.623C283.943 124.707 284.498 124.707 290.193 121.929C294.498 119.707 296.304 117.901 296.998 114.845C297.554 112.623 298.387 110.401 298.804 110.123C299.359 109.845 301.859 113.873 304.22 119.151L308.665 128.873L305.193 130.401C303.387 131.234 301.859 132.484 301.859 133.179C301.859 134.845 307.276 145.401 308.248 145.401C309.081 145.401 345.193 128.873 345.887 128.179C346.165 127.901 344.915 124.845 343.248 121.234C340.054 114.845 338.943 114.429 332.137 116.929C330.887 117.484 327.97 112.901 322.693 102.207C318.109 92.9012 315.609 86.3735 316.581 86.0957C317.415 85.8179 319.22 84.8457 320.609 83.7346C322.831 82.0679 322.831 81.6512 319.359 74.8457C317.276 70.8179 315.609 67.6235 315.331 67.6235C315.193 67.7623 308.665 70.8179 300.887 74.5679Z" fill="#F8F8FA"/>
<path d="M604.22 90.3994C601.165 99.705 601.165 99.1494 605.887 101.649L610.054 103.733L602.276 116.233C596.304 125.677 593.804 128.594 592.276 127.899C585.748 125.122 584.498 125.677 581.304 132.205C579.637 135.677 578.248 139.011 578.248 139.705C578.248 141.372 603.387 157.483 613.526 162.205C633.248 171.511 643.804 170.677 655.47 158.733C667.97 145.816 670.609 129.427 662.137 117.205C655.887 108.316 622.137 86.6494 610.054 83.8717C606.72 83.0383 606.304 83.455 604.22 90.3994ZM638.526 121.649C642.137 125.677 641.72 132.066 637.276 138.594C632.831 145.399 628.109 147.483 621.859 145.399C619.22 144.566 616.859 143.177 616.304 142.483C615.47 141.094 620.054 132.622 627.137 122.066C631.442 115.816 633.109 115.677 638.526 121.649Z" fill="#F8F8FA"/>
<path d="M186.165 151.51C174.498 155.676 160.332 168.871 154.498 181.232C152.693 184.704 151.026 191.232 150.748 195.537C150.054 205.121 153.109 211.787 161.998 219.982C176.165 233.037 194.359 230.815 213.248 213.593C231.165 197.204 234.637 175.815 221.582 160.537C212.97 150.399 199.082 146.926 186.165 151.51ZM196.998 175.954C199.359 177.482 202.554 180.815 203.943 183.454C206.443 188.037 206.443 188.593 204.22 193.315C201.582 198.871 194.637 203.732 189.082 203.732C184.22 203.732 175.887 196.51 174.776 191.232C173.109 183.871 181.582 173.176 189.082 173.176C190.887 173.176 194.498 174.426 196.998 175.954Z" fill="#F8F8FA"/>
<path d="M707.138 155.816C702.554 161.232 702.554 161.649 705.749 165.26C707.971 167.899 707.693 168.316 695.61 179.427L683.11 191.094L680.054 188.177L676.999 185.26L672.138 189.288C669.499 191.51 667.277 194.01 667.277 194.844C666.999 197.621 711.86 244.705 714.916 245.121C716.86 245.399 720.471 243.177 725.471 238.732C733.943 231.094 734.082 231.371 723.943 219.982C719.36 214.982 719.082 214.844 714.638 216.51C710.471 218.177 709.916 218.038 705.749 213.871L701.304 209.427L704.638 205.816L707.971 202.344L712.971 207.205L717.971 212.066L722.416 207.482C724.916 204.982 726.86 202.344 726.86 201.649C726.86 200.955 725.193 198.594 723.11 196.51L719.36 192.621L722.416 189.566L725.471 186.371L729.916 190.955C733.388 194.427 734.082 195.677 732.693 197.066C729.777 199.982 730.888 203.038 737.277 209.288L743.527 215.399L751.166 207.899C755.332 203.732 758.804 199.844 758.804 199.149C758.804 197.205 714.221 150.955 712.416 151.094C711.582 151.094 709.221 153.177 707.138 155.816Z" fill="#F8F8FA"/>
<path d="M106.165 241.374C101.859 247.762 100.748 250.401 101.998 251.79C103.109 253.04 102.693 254.29 100.609 256.374C95.6093 261.374 90.4704 273.318 89.776 281.512C88.526 295.54 93.3871 305.124 105.054 311.512C123.248 321.374 145.332 311.374 155.748 288.596C161.026 277.068 161.72 256.512 156.859 256.512C155.887 256.512 151.582 258.457 147.276 260.818C139.637 264.846 139.359 265.262 139.359 270.679C139.359 282.346 130.887 291.512 121.998 289.29C116.582 287.901 110.193 281.096 110.193 276.79C110.193 271.929 116.859 264.846 121.72 264.29C125.193 263.874 126.304 262.624 129.776 254.29C131.998 249.151 133.804 244.707 133.804 244.429C133.804 244.012 116.859 234.568 114.22 233.596C112.554 232.901 110.47 234.985 106.165 241.374Z" fill="#F8F8FA"/>
<path d="M771.026 246.232C762.971 250.537 761.165 261.371 764.637 285.398C765.887 294.426 765.748 297.204 764.498 298.593C762.276 300.676 759.36 297.065 757.137 289.565C755.887 285.537 756.026 283.037 757.415 278.871C759.082 273.732 758.943 272.898 755.054 265.954C752.693 261.926 749.776 258.454 748.526 258.176C746.026 257.621 727.832 267.343 728.526 268.871C728.804 269.287 730.471 273.315 732.276 277.759C734.637 283.176 736.443 285.676 738.248 285.676C739.776 285.676 740.748 286.648 740.748 288.176C740.748 299.287 753.665 316.509 763.387 318.315C770.193 319.565 776.443 316.926 779.776 311.509C782.832 306.509 783.248 293.871 780.887 278.593C780.054 273.176 779.776 267.759 780.332 266.509C781.026 264.426 781.582 264.565 783.804 267.621C787.415 272.343 788.665 278.454 786.582 282.204C785.193 284.843 785.471 286.371 788.526 292.482C790.61 296.509 793.248 300.121 794.36 300.537C796.721 301.371 814.221 294.009 814.36 292.065C814.36 288.732 806.86 274.565 805.193 275.121C804.221 275.537 803.248 274.009 802.693 271.371C800.748 261.232 792.137 249.287 784.221 245.954C778.526 243.454 775.748 243.593 771.026 246.232Z" fill="#F8F8FA"/>
<path d="M425.748 154.982C423.248 156.509 424.22 163.454 427.276 165.398C430.609 167.482 434.359 164.843 434.915 159.982C435.47 156.093 433.526 153.732 429.637 153.732C428.526 153.732 426.72 154.287 425.748 154.982Z" fill="#F8F8FA"/>
<path d="M448.248 155.676C447.832 156.787 447.693 159.148 447.971 160.954C448.248 163.593 449.221 164.148 453.248 164.148C457.832 164.148 458.11 163.871 458.11 159.287C458.11 154.843 457.693 154.426 453.526 154.01C450.61 153.732 448.804 154.287 448.248 155.676Z" fill="#F8F8FA"/>
<path d="M476.859 157.898C474.776 161.926 476.443 166.093 480.47 167.065C484.637 168.176 487.97 165.537 487.97 161.51C487.97 155.121 479.776 152.621 476.859 157.898Z" fill="#F8F8FA"/>
<path d="M401.026 158.457C400.609 159.569 400.47 161.93 400.748 163.735C401.026 166.374 401.998 166.93 406.026 166.93C410.609 166.93 410.887 166.652 410.887 162.069C410.887 157.624 410.47 157.207 406.304 156.791C403.387 156.513 401.581 157.069 401.026 158.457Z" fill="#F8F8FA"/>
<path d="M500.749 160.954C496.721 164.982 499.916 170.398 506.305 170.398C509.221 170.398 510.332 169.565 511.027 166.926C511.582 164.843 511.166 162.482 510.193 161.371C508.11 158.871 503.11 158.593 500.749 160.954Z" fill="#F8F8FA"/>
<path d="M378.248 162.763C377.276 163.874 376.859 166.235 377.415 168.18C378.943 174.43 387.276 174.43 388.804 168.18C389.915 164.013 387.276 160.68 383.109 160.68C381.443 160.68 379.22 161.652 378.248 162.763Z" fill="#F8F8FA"/>
<path d="M523.248 166.789C522.832 167.901 522.693 170.262 522.971 172.067C523.248 174.706 524.221 175.262 528.248 175.262C532.832 175.262 533.11 174.984 533.11 170.401C533.11 165.956 532.693 165.539 528.526 165.123C525.61 164.845 523.804 165.401 523.248 166.789Z" fill="#F8F8FA"/>
<path d="M356.304 167.9C353.526 170.678 354.221 177.067 357.415 178.039C362.137 179.567 365.749 177.483 365.749 173.317C365.749 169.15 363.526 166.233 360.193 166.233C358.943 166.233 357.276 166.928 356.304 167.9Z" fill="#F8F8FA"/>
<path d="M546.582 173.456C542.971 177.067 545.61 184.289 550.471 184.289C553.526 184.289 555.471 182.622 556.582 179.289C558.249 173.734 550.61 169.428 546.582 173.456Z" fill="#F8F8FA"/>
<path d="M333.804 176.51C329.915 181.371 335.332 189.427 340.471 186.232C343.387 184.288 344.36 177.343 341.86 175.816C339.082 174.01 335.748 174.288 333.804 176.51Z" fill="#F8F8FA"/>
<path d="M567.277 184.152C564.36 189.568 569.36 194.707 575.193 192.485C577.832 191.513 578.388 190.402 577.971 186.791C577.554 182.763 576.999 182.207 573.11 181.791C569.916 181.513 568.388 182.068 567.277 184.152Z" fill="#F8F8FA"/>
<path d="M311.443 187.206C309.221 191.372 311.859 196.789 316.165 196.789C320.193 196.789 322.693 194.428 322.693 190.539C322.693 184.289 314.359 181.789 311.443 187.206Z" fill="#F8F8FA"/>
<path d="M439.637 194.704L436.582 198.593V385.121C436.582 518.871 436.998 572.621 438.109 574.982C441.165 581.787 450.054 583.454 455.332 578.037L458.804 574.704V429.982V285.26L467.276 286.232C495.054 289.426 525.609 302.065 548.248 319.565C552.693 323.037 557.693 326.232 559.082 326.787C563.248 328.037 569.498 324.704 571.304 320.26C573.943 314.01 571.998 309.843 562.832 302.621C536.721 282.204 505.193 269.01 471.721 264.704L458.804 262.898V238.176V213.454H465.609C477.276 213.454 503.387 218.593 521.026 224.426C634.498 261.648 702.415 376.787 680.193 494.148C675.332 519.704 663.387 550.26 649.359 572.898C609.498 637.065 544.082 677.621 468.109 685.121L458.804 685.954L459.082 660.537L459.498 634.982L470.193 633.871C501.165 630.815 534.221 617.482 561.026 597.065C573.387 587.76 575.609 581.648 569.221 575.26C564.221 570.121 558.387 570.676 550.887 576.787C516.859 604.704 467.832 618.176 424.776 611.648C346.026 599.426 287.832 535.26 284.221 456.51C281.582 398.732 306.721 344.426 350.471 313.593C366.582 302.204 382.137 295.121 403.526 289.148C412.276 286.787 414.359 284.426 414.359 276.926C414.359 266.371 405.193 264.982 383.109 272.343C344.498 285.26 315.054 308.037 292.554 342.343C271.859 373.732 262.415 407.065 262.415 448.871C262.415 482.76 267.554 504.565 281.859 533.454C309.359 588.593 366.165 628.037 426.304 634.01L435.887 634.982L436.582 668.732C437.276 702.204 437.276 702.621 440.609 705.26C444.359 708.315 454.221 708.732 475.193 706.371C588.665 694.01 679.498 610.954 701.859 498.732C706.165 477.343 707.276 435.676 704.082 413.454C691.443 326.232 638.665 254.148 559.915 216.232C527.137 200.537 497.693 192.898 463.526 191.648L442.693 190.815L439.637 194.704Z" fill="#F8F8FA"/>
<path d="M587.971 195.262C585.61 199.984 588.527 204.012 593.943 203.456C597.971 203.04 598.388 202.623 598.388 198.179C598.388 193.734 597.971 193.318 593.943 192.901C590.61 192.623 589.221 193.179 587.971 195.262Z" fill="#F8F8FA"/>
<path d="M378.943 198.038C330.609 210.677 292.693 232.76 259.359 268.038C242.137 286.232 230.054 303.732 218.109 327.482C190.332 382.343 182.415 443.732 195.054 505.677C213.109 594.704 276.72 667.621 360.193 695.121C371.859 699.01 398.526 705.121 404.082 705.121C410.193 705.121 414.359 700.677 414.359 694.149C414.359 686.649 411.304 684.566 395.47 681.371C344.637 671.093 299.082 644.149 266.859 605.26C237.693 570.121 220.47 530.538 213.526 482.899C210.47 461.093 211.443 423.177 215.748 401.788C229.637 331.649 271.859 272.899 332.415 239.427C350.332 229.427 381.443 219.01 403.109 215.538C410.887 214.288 414.359 210.816 414.359 204.01C414.359 192.899 405.054 191.371 378.943 198.038Z" fill="#F8F8FA"/>
<path d="M291.999 198.038C289.082 200.399 288.943 201.094 290.471 204.288C291.86 207.482 292.971 208.038 296.721 207.621C300.471 207.205 301.166 206.649 301.582 203.038C301.999 200.399 301.304 198.455 299.638 197.205C296.443 194.844 295.888 194.844 291.999 198.038Z" fill="#F8F8FA"/>
<path d="M607.971 207.067C607.554 208.179 607.416 210.54 607.693 212.345C607.971 214.845 609.082 215.679 612.554 215.956C617.971 216.512 620.888 212.484 618.527 207.901C616.721 204.567 609.082 204.012 607.971 207.067Z" fill="#F8F8FA"/>
<path d="M271.305 212.065C268.11 218.038 273.666 223.593 279.638 220.399C282.693 218.732 283.388 213.593 280.749 210.954C278.11 208.315 272.971 209.01 271.305 212.065Z" fill="#F8F8FA"/>
<path d="M626.859 221.79C624.915 225.401 626.304 229.707 629.637 230.818C635.748 232.763 640.748 225.124 636.304 220.679C633.665 218.04 628.526 218.735 626.859 221.79Z" fill="#F8F8FA"/>
<path d="M252.415 228.039C251.304 232.623 254.082 235.956 258.526 235.4C266.582 234.428 265.887 225.678 257.693 224.845C254.082 224.428 253.248 224.984 252.415 228.039Z" fill="#F8F8FA"/>
<path d="M646.026 235.817C641.026 238.734 643.804 246.789 649.776 246.789C655.61 246.789 657.971 240.678 653.804 236.511C651.304 234.011 649.36 233.734 646.026 235.817Z" fill="#F8F8FA"/>
<path d="M236.859 241.512C234.498 243.874 234.776 248.874 237.276 250.957C238.387 251.929 240.748 252.346 242.831 251.79C248.804 250.262 246.998 239.846 240.748 239.846C239.498 239.846 237.831 240.54 236.859 241.512Z" fill="#F8F8FA"/>
<path d="M660.748 254.29C660.332 255.402 660.193 257.763 660.471 259.568C661.026 263.735 669.082 264.985 671.026 261.096C673.248 256.79 670.61 252.346 665.748 252.346C663.387 252.346 661.165 253.179 660.748 254.29Z" fill="#F8F8FA"/>
<path d="M220.193 259.568C215.609 264.151 222.415 272.207 228.109 269.012C233.526 266.235 231.026 257.901 224.776 257.901C223.109 257.901 221.165 258.596 220.193 259.568Z" fill="#F8F8FA"/>
<path d="M675.47 273.037C673.387 277.065 673.665 278.454 677.415 280.815C681.72 283.732 686.582 281.51 686.582 276.926C686.582 270.537 678.387 267.76 675.47 273.037Z" fill="#F8F8FA"/>
<path d="M207.137 277.484C204.22 279.151 203.804 284.29 206.304 286.79C208.804 289.29 214.081 288.734 215.748 285.817C217.693 282.067 217.554 280.679 214.915 278.179C212.415 275.679 210.47 275.401 207.137 277.484Z" fill="#F8F8FA"/>
<path d="M689.637 291.512C686.72 294.429 687.693 299.429 691.443 301.234C694.498 302.623 695.47 302.484 697.97 299.845C700.609 297.345 700.748 296.373 699.359 293.318C697.554 289.568 692.554 288.595 689.637 291.512Z" fill="#F8F8FA"/>
<path d="M195.193 296.929C192.555 297.901 191.999 299.013 192.416 302.624C192.832 306.79 193.249 307.207 197.693 307.207C202.138 307.207 202.555 306.79 202.971 302.763C203.527 297.485 200.193 294.985 195.193 296.929Z" fill="#F8F8FA"/>
<path d="M700.471 313.317C698.11 318.039 701.027 322.067 706.443 321.511C710.471 321.094 710.888 320.678 710.888 316.233C710.888 311.789 710.471 311.372 706.443 310.956C703.11 310.678 701.721 311.233 700.471 313.317Z" fill="#F8F8FA"/>
<path d="M184.082 317.761C181.443 318.734 180.888 319.845 181.304 323.456C181.721 327.622 182.138 328.039 186.582 328.039C191.027 328.039 191.443 327.622 191.86 323.595C192.415 318.317 189.082 315.817 184.082 317.761Z" fill="#F8F8FA"/>
<path d="M711.86 332.76C709.36 334.288 710.332 341.232 713.387 343.177C716.443 345.121 720.471 342.76 721.026 338.593C721.86 333.038 716.582 329.704 711.86 332.76Z" fill="#F8F8FA"/>
<path d="M172.971 340.124C169.221 343.874 171.999 350.957 176.999 350.957C179.916 350.957 183.804 347.346 183.804 344.707C183.804 339.846 176.443 336.651 172.971 340.124Z" fill="#F8F8FA"/>
<path d="M718.526 356.65C717.276 358.872 717.415 360.261 719.221 362.9C722.832 368.317 729.637 366.511 729.637 359.984C729.637 353.734 721.304 351.234 718.526 356.65Z" fill="#F8F8FA"/>
<path d="M166.304 361.789C163.387 363.594 162.831 368.594 165.054 370.955C169.359 375.122 175.47 372.761 175.47 366.928C175.47 361.789 170.47 359.011 166.304 361.789Z" fill="#F8F8FA"/>
<path d="M726.582 377.485C721.582 380.401 724.36 388.457 730.332 388.457C736.165 388.457 738.526 382.346 734.36 378.179C731.86 375.679 729.915 375.401 726.582 377.485Z" fill="#F8F8FA"/>
<path d="M159.082 385.956C154.915 390.123 158.665 395.956 165.332 395.123C168.804 394.706 169.22 394.151 169.22 389.845C169.22 385.401 168.804 384.984 165.054 384.567C162.693 384.29 160.054 384.984 159.082 385.956Z" fill="#F8F8FA"/>
<path d="M729.638 402.345C727.693 405.956 729.082 410.262 732.416 411.373C738.527 413.317 743.527 405.678 739.082 401.234C736.443 398.595 731.304 399.289 729.638 402.345Z" fill="#F8F8FA"/>
<path d="M156.859 408.316C155.193 409.566 154.498 411.511 154.915 414.15C155.332 417.9 155.887 418.316 160.193 418.316C164.498 418.316 165.054 417.9 165.471 414.15C165.887 410.539 163.109 406.511 160.193 406.511C159.776 406.511 158.248 407.344 156.859 408.316Z" fill="#F8F8FA"/>
<path d="M732.693 424.843C728.248 429.288 733.248 436.927 739.36 434.982C742.832 433.871 744.498 428.038 742.137 425.26C740.054 422.76 735.054 422.482 732.693 424.843Z" fill="#F8F8FA"/>
<path d="M154.082 432.343C149.915 436.51 152.276 442.621 158.11 442.621C163.943 442.621 166.304 436.51 162.137 432.343C161.026 431.093 159.082 430.121 158.11 430.121C157.137 430.121 155.193 431.093 154.082 432.343Z" fill="#F8F8FA"/>
<path d="M733.387 447.622C731.304 449.706 732.415 456.372 735.193 457.9C739.776 460.261 743.804 457.345 743.248 451.928C742.831 448.178 742.276 447.483 738.665 447.067C736.304 446.789 733.943 447.067 733.387 447.622Z" fill="#F8F8FA"/>
<path d="M154.082 455.957C149.915 460.123 152.276 466.234 158.11 466.234C164.221 466.234 166.86 457.901 161.721 455.123C157.971 453.179 156.582 453.318 154.082 455.957Z" fill="#F8F8FA"/>
<path d="M731.998 471.232C729.915 473.315 731.026 479.982 733.804 481.51C738.387 483.871 742.415 480.954 741.859 475.537C741.443 471.787 740.887 471.093 737.276 470.676C734.915 470.398 732.554 470.676 731.998 471.232Z" fill="#F8F8FA"/>
<path d="M156.582 478.455C151.859 481.649 153.804 489.844 159.221 489.844C163.248 489.844 165.748 487.344 165.748 483.594C165.748 478.594 160.609 475.677 156.582 478.455Z" fill="#F8F8FA"/>
<path d="M728.248 496.649C725.887 501.371 728.804 505.399 734.221 504.843C738.248 504.426 738.665 504.01 738.665 499.565C738.665 495.121 738.248 494.704 734.221 494.288C730.887 494.01 729.498 494.565 728.248 496.649Z" fill="#F8F8FA"/>
<path d="M159.082 502.621C154.637 507.065 159.637 514.704 165.748 512.76C169.22 511.648 170.887 505.815 168.526 503.037C166.443 500.537 161.443 500.26 159.082 502.621Z" fill="#F8F8FA"/>
<path d="M724.36 517.902C723.388 518.874 722.693 520.818 722.693 522.485C722.693 528.596 731.027 531.235 733.804 526.096C735.749 522.346 735.61 520.957 732.971 518.457C730.471 515.818 726.721 515.541 724.36 517.902Z" fill="#F8F8FA"/>
<path d="M163.526 528.041C162.415 532.346 164.915 535.68 169.221 535.68C173.526 535.68 176.026 532.346 174.915 528.041C174.221 525.124 173.248 524.569 169.221 524.569C165.193 524.569 164.221 525.124 163.526 528.041Z" fill="#F8F8FA"/>
<path d="M718.248 539.985C713.248 542.763 715.609 550.957 721.443 550.957C728.248 550.957 730.054 543.04 723.943 539.846C721.026 538.179 721.165 538.179 718.248 539.985Z" fill="#F8F8FA"/>
<path d="M171.86 548.735C171.443 549.846 171.304 552.207 171.582 554.013C171.86 556.651 172.832 557.207 176.86 557.207C181.443 557.207 181.721 556.929 181.721 552.346C181.721 547.901 181.304 547.485 177.138 547.068C174.221 546.79 172.415 547.346 171.86 548.735Z" fill="#F8F8FA"/>
<path d="M709.081 562.345C706.304 565.123 706.998 571.512 710.193 572.484C714.915 574.012 718.526 571.929 718.526 567.762C718.526 563.595 716.304 560.679 712.97 560.679C711.72 560.679 710.054 561.373 709.081 562.345Z" fill="#F8F8FA"/>
<path d="M181.86 569.847C179.221 572.347 179.082 573.735 181.027 577.485C182.693 580.402 187.971 580.958 190.471 578.458C192.971 575.958 192.415 570.68 189.499 569.013C185.749 567.069 184.36 567.208 181.86 569.847Z" fill="#F8F8FA"/>
<path d="M700.192 582.484C696.998 583.317 695.47 589.289 697.692 591.928C701.304 596.372 709.637 593.039 708.526 587.622C707.97 584.706 703.248 581.789 700.192 582.484Z" fill="#F8F8FA"/>
<path d="M192.97 590.679C188.804 594.846 191.165 600.957 196.998 600.957C203.109 600.957 205.748 592.624 200.609 589.846C196.859 587.901 195.47 588.04 192.97 590.679Z" fill="#F8F8FA"/>
<path d="M685.193 605.121C683.11 609.149 684.777 613.316 688.804 614.288C692.971 615.399 696.304 612.76 696.304 608.732C696.304 602.343 688.11 599.843 685.193 605.121Z" fill="#F8F8FA"/>
<path d="M204.916 610.956C200.749 615.123 204.499 620.956 211.166 620.123C214.638 619.706 215.054 619.151 215.054 614.845C215.054 610.401 214.638 609.984 210.888 609.567C208.527 609.29 205.888 609.984 204.916 610.956Z" fill="#F8F8FA"/>
<path d="M671.026 625.263C669.638 628.319 669.776 629.291 672.415 631.791C674.915 634.43 675.888 634.569 678.943 633.18C681.165 632.069 682.415 630.402 682.415 628.319C682.415 621.374 673.804 619.152 671.026 625.263Z" fill="#F8F8FA"/>
<path d="M220.193 629.013C219.221 629.985 218.526 632.485 218.526 634.568C218.526 637.485 219.36 638.596 221.999 639.291C226.304 640.402 229.637 637.902 229.637 633.735C229.637 630.124 227.137 627.346 224.082 627.346C222.832 627.346 221.165 628.041 220.193 629.013Z" fill="#F8F8FA"/>
<path d="M656.026 642.484C653.248 647.901 659.082 653.873 664.359 650.957C667.415 649.29 668.109 644.151 665.471 641.512C662.971 639.012 657.693 639.568 656.026 642.484Z" fill="#F8F8FA"/>
<path d="M235.47 647.068C232.832 649.706 233.526 654.845 236.72 656.512C238.943 657.762 240.332 657.623 242.97 655.818C246.72 653.456 246.998 652.068 244.915 648.04C243.248 645.123 237.97 644.568 235.47 647.068Z" fill="#F8F8FA"/>
<path d="M639.359 659.148C636.581 664.565 642.415 670.537 647.692 667.621C650.748 665.954 651.442 660.815 648.804 658.176C646.304 655.676 641.026 656.232 639.359 659.148Z" fill="#F8F8FA"/>
<path d="M253.388 663.041C248.249 666.513 250.471 673.18 256.86 673.18C260.888 673.18 263.527 669.846 262.416 665.68C261.443 661.652 257.138 660.263 253.388 663.041Z" fill="#F8F8FA"/>
<path d="M621.304 674.705C620.054 676.927 620.193 678.316 621.999 680.955C624.36 684.705 625.749 684.983 629.777 682.9C633.11 681.094 633.388 673.872 630.193 672.622C626.027 671.094 622.832 671.789 621.304 674.705Z" fill="#F8F8FA"/>
<path d="M270.749 678.177C269.499 679.288 268.526 681.233 268.526 682.205C268.526 683.177 269.499 685.122 270.749 686.233C274.915 690.399 281.026 688.038 281.026 682.205C281.026 676.372 274.915 674.01 270.749 678.177Z" fill="#F8F8FA"/>
<path d="M602.415 687.622C601.999 688.733 601.86 691.094 602.138 692.899C602.415 695.538 603.388 696.094 607.415 696.094C611.999 696.094 612.277 695.816 612.277 691.233C612.277 686.788 611.86 686.372 607.693 685.955C604.777 685.677 602.971 686.233 602.415 687.622Z" fill="#F8F8FA"/>
<path d="M289.36 692.485C286.999 697.207 289.915 701.235 295.332 700.679C299.36 700.262 299.776 699.846 299.776 695.401C299.776 690.957 299.36 690.54 295.332 690.124C291.999 689.846 290.61 690.401 289.36 692.485Z" fill="#F8F8FA"/>
<path d="M582.693 699.845C578.943 703.595 581.86 709.289 587.416 709.289C591.582 709.289 594.082 705.956 592.971 701.65C592.277 699.011 591.166 698.178 588.249 698.178C586.166 698.178 583.666 698.872 582.693 699.845Z" fill="#F8F8FA"/>
<path d="M310.054 703.874C307.832 708.04 310.471 713.457 314.776 713.457C318.804 713.457 321.304 711.096 321.304 707.207C321.304 700.957 312.971 698.457 310.054 703.874Z" fill="#F8F8FA"/>
<path d="M561.86 709.565C558.11 713.315 560.888 720.398 565.888 720.398C568.804 720.398 572.693 716.787 572.693 714.148C572.693 709.287 565.332 706.093 561.86 709.565Z" fill="#F8F8FA"/>
<path d="M332.693 712.345C329.915 715.123 330.609 721.512 333.804 722.484C338.526 724.012 342.137 721.929 342.137 717.762C342.137 713.595 339.915 710.679 336.582 710.679C335.332 710.679 333.665 711.373 332.693 712.345Z" fill="#F8F8FA"/>
<path d="M540.193 718.457C536.026 722.623 538.388 728.734 544.221 728.734C550.054 728.734 552.415 722.623 548.249 718.457C547.138 717.207 545.193 716.234 544.221 716.234C543.249 716.234 541.304 717.207 540.193 718.457Z" fill="#F8F8FA"/>
<path d="M354.915 720.26C352.415 721.788 353.387 728.732 356.443 730.677C359.499 732.621 363.526 730.26 364.082 726.093C364.915 720.538 359.637 717.204 354.915 720.26Z" fill="#F8F8FA"/>
<path d="M518.248 724.707C515.332 726.374 514.915 731.512 517.415 734.012C522.832 739.429 531.304 731.651 526.165 725.957C523.387 722.901 521.721 722.624 518.248 724.707Z" fill="#F8F8FA"/>
<path d="M376.027 729.288C374.638 734.983 376.304 737.344 381.165 736.788C390.054 735.955 390.054 727.066 381.304 726.233C377.693 725.816 376.86 726.372 376.027 729.288Z" fill="#F8F8FA"/>
<path d="M493.526 731.511C490.332 737.483 495.887 743.038 501.86 739.844C504.915 738.177 505.61 733.038 502.971 730.399C500.332 727.761 495.193 728.455 493.526 731.511Z" fill="#F8F8FA"/>
<path d="M400.054 730.957C399.499 731.513 399.082 733.735 399.082 735.957C399.082 738.874 400.054 740.402 402.554 741.513C407.276 743.596 410.471 740.819 409.915 735.124C409.499 731.513 408.804 730.819 405.332 730.402C402.971 730.124 400.61 730.402 400.054 730.957Z" fill="#F8F8FA"/>
<path d="M470.609 734.846C468.804 737.485 468.665 738.874 469.915 741.096C472.693 746.513 481.026 744.013 481.026 737.763C481.026 731.235 474.22 729.43 470.609 734.846Z" fill="#F8F8FA"/>
<path d="M423.248 734.844C422.832 735.955 422.693 738.316 422.971 740.122C423.248 742.761 424.221 743.316 428.248 743.316C432.832 743.316 433.11 743.039 433.11 738.455C433.11 734.011 432.693 733.594 428.526 733.178C425.61 732.9 423.804 733.455 423.248 734.844Z" fill="#F8F8FA"/>
<path d="M447.97 734.568C446.998 735.54 446.304 738.04 446.304 740.123C446.304 743.04 447.137 744.151 449.776 744.845C454.081 745.957 457.415 743.457 457.415 739.29C457.415 735.679 454.915 732.901 451.859 732.901C450.609 732.901 448.943 733.595 447.97 734.568Z" fill="#F8F8FA"/>
<path d="M57.9706 431.649C52.415 433.177 49.3594 436.51 51.5817 438.732C52.8317 439.982 54.0817 439.843 56.7206 438.732C63.5261 435.677 69.915 437.343 69.915 442.343C69.915 443.454 65.8872 448.454 60.8872 453.593C48.3872 466.649 48.665 467.621 65.0539 467.621C77.2761 467.621 78.2483 467.482 78.2483 464.843C78.2483 462.343 77.2761 462.066 69.6372 462.066H61.0261L68.2483 454.704C76.9983 445.816 78.5261 440.538 73.8039 435.26C70.0539 431.232 64.2206 429.843 57.9706 431.649Z" fill="#F8F8FA"/>
<path d="M92.6932 431.65C80.7488 434.984 78.9432 458.456 89.9155 465.678C94.7766 468.734 104.36 467.623 107.693 463.456C111.582 458.734 113.249 450.539 111.721 443.873C109.499 433.873 101.86 429.012 92.6932 431.65ZM104.082 441.512C106.999 447.206 105.888 456.234 101.86 459.567C97.8321 462.762 96.8599 462.762 92.8321 458.595C88.6655 454.567 88.1099 445.123 91.5821 440.123C94.9155 435.262 101.165 435.956 104.082 441.512Z" fill="#F8F8FA"/>
<path d="M815.748 432.482C811.304 434.704 810.887 435.677 810.47 441.371C810.054 447.066 810.609 448.316 813.804 450.816C817.832 454.01 824.082 454.566 828.387 452.343C832.415 450.121 831.859 454.427 827.415 458.871C824.359 461.927 823.109 462.204 818.387 461.51C814.082 460.816 812.693 461.093 811.998 462.899C810.887 465.816 813.943 467.621 820.193 467.621C830.47 467.621 836.026 462.621 837.415 451.788C839.637 436.371 828.248 426.232 815.748 432.482ZM826.582 437.899C830.47 440.538 830.47 444.843 826.72 446.788C819.498 450.677 812.415 443.177 818.526 438.177C822.276 435.121 822.693 435.121 826.582 437.899Z" fill="#F8F8FA"/>
<path d="M787.971 434.288C787.971 436.371 788.943 437.066 791.443 437.066H794.915V452.343V467.621H798.387H801.86V449.566V431.51H794.915C788.943 431.51 787.971 431.927 787.971 434.288Z" fill="#F8F8FA"/>
<path d="M804.221 542.902C803.11 544.707 797.276 554.43 791.443 564.707C781.582 581.652 780.888 583.457 782.554 586.513C783.526 588.319 784.915 589.846 785.888 589.846C786.721 589.846 789.638 585.957 792.554 581.096C795.332 576.374 799.221 569.985 801.165 566.93L804.638 561.374L803.665 577.902L802.832 594.43L806.86 593.457C809.082 592.902 811.165 592.069 811.443 591.791C811.86 591.513 812.138 579.846 812.138 565.819C812.276 540.819 812.276 540.541 809.221 540.124C807.276 539.846 805.471 540.819 804.221 542.902Z" fill="#F8F8FA"/>
<path d="M83.9429 543.872C82.2763 544.983 82.4152 548.872 85.054 571.233C88.1096 597.483 88.6652 599.566 94.0818 599.566C96.304 599.566 96.5818 598.872 95.8874 594.289C94.2207 583.733 93.2485 571.789 93.9429 571.789C94.2207 571.789 97.2763 576.372 100.471 581.789C103.804 587.344 106.721 592.205 106.998 592.483C108.387 594.289 111.86 588.316 111.165 585.4C109.915 580.816 88.9429 543.594 87.2763 543.039C86.5818 542.9 85.054 543.178 83.9429 543.872Z" fill="#F8F8FA"/>
<path d="M754.081 644.011C738.943 659.289 736.581 662.484 737.276 665.123C739.22 671.65 740.748 671.095 752.554 659.289C759.081 652.761 764.359 647.9 764.359 648.178C764.359 648.595 762.415 654.845 760.193 662.067C754.915 678.734 754.915 679.011 760.47 678.456L764.915 678.039L771.859 653.873C778.665 630.539 778.804 629.706 776.165 627.9C774.776 626.789 773.109 625.956 772.693 625.956C772.137 625.956 763.804 634.011 754.081 644.011Z" fill="#F8F8FA"/>
<path d="M120.193 630.398C119.221 631.371 118.526 633.037 118.526 634.148C118.526 635.26 122.693 646.787 127.693 659.565C136.582 682.343 136.86 682.898 140.887 682.898C143.11 682.898 144.915 682.343 144.915 681.787C144.915 681.232 142.693 675.26 140.054 668.593C137.415 661.926 135.193 656.093 135.193 655.537C135.193 654.982 139.499 658.871 144.915 664.148L154.499 673.732L156.026 669.843C157.276 666.51 156.999 665.398 153.804 661.648C150.61 657.76 122.554 628.732 122.137 628.732C121.999 628.732 121.165 629.426 120.193 630.398Z" fill="#F8F8FA"/>
<path d="M696.165 714.011C680.193 723.734 674.637 727.9 674.359 730.122C674.082 731.789 674.498 733.872 675.193 734.567C676.582 735.956 680.332 734.289 699.082 723.317L705.193 719.845L701.859 725.261C700.054 728.317 696.443 734.15 693.943 738.178C691.443 742.206 689.359 746.095 689.359 746.789C689.359 748.456 695.609 750.122 697.554 749.011C698.248 748.456 704.359 739.011 710.887 727.9C721.998 709.15 722.832 707.345 721.165 704.289C720.193 702.484 719.082 700.956 718.526 700.956C718.109 700.956 707.971 706.789 696.165 714.011Z" fill="#F8F8FA"/>
<path d="M175.749 705.401C174.776 706.373 174.082 707.762 174.082 708.456C174.082 709.29 180.888 719.29 189.082 730.817C203.11 750.54 204.221 751.651 208.11 751.234C210.471 750.956 212.554 750.401 212.832 750.123C213.11 749.984 211.443 747.345 209.221 744.428C206.999 741.512 202.832 735.817 199.915 731.928L194.638 724.567L206.443 731.512C212.971 735.401 218.665 738.456 219.221 738.456C219.638 738.456 219.915 736.512 219.638 734.012C219.221 729.984 217.554 728.456 199.082 716.79C187.971 709.706 178.665 703.873 178.249 703.873C177.693 703.734 176.721 704.428 175.749 705.401Z" fill="#F8F8FA"/>
<path d="M260.332 740.261C258.109 749.288 258.387 750.816 262.276 752.622C264.22 753.455 265.748 754.705 265.748 755.261C265.748 755.955 262.832 761.788 259.22 768.316C252.415 780.816 252.276 780.955 244.498 778.038C243.109 777.483 241.72 779.566 239.498 785.122C237.832 789.427 236.72 793.177 236.859 793.316C237.137 793.455 244.776 797.761 253.943 802.9C291.859 824.011 309.498 822.622 321.443 797.483C328.526 782.9 325.887 768.316 314.637 759.427C304.776 751.788 275.054 736.65 266.165 734.844C262.137 734.011 261.859 734.288 260.332 740.261ZM295.47 769.705C299.915 773.872 300.193 779.427 296.304 787.066C291.859 795.816 283.526 798.316 275.47 793.316C273.248 791.927 286.859 766.233 289.915 766.233C290.887 766.233 293.387 767.761 295.47 769.705Z" fill="#F8F8FA"/>
<path d="M617.276 737.762C611.998 740.262 610.193 741.789 610.748 743.317C611.304 744.845 610.471 745.401 607.971 745.401C603.109 745.401 592.276 751.234 586.998 756.79C578.526 765.678 577.832 773.873 585.193 780.817C590.609 785.956 599.915 786.789 618.387 783.734C626.165 782.345 632.971 781.789 633.804 782.206C636.859 784.151 634.776 786.928 627.971 789.845C620.609 793.039 620.471 793.039 611.582 789.289C609.221 788.317 595.193 795.956 594.082 798.873C593.248 801.095 602.693 819.012 604.637 819.012C605.332 819.012 609.498 817.345 614.082 815.401C620.748 812.484 622.276 811.373 621.721 809.151C621.165 806.928 621.721 806.512 625.332 806.512C631.859 806.512 644.221 800.123 649.082 794.289C658.943 782.345 654.637 767.901 640.609 765.54C637.554 764.984 628.387 765.401 620.193 766.373C601.998 768.734 602.971 768.734 602.276 766.651C601.859 765.678 604.498 763.595 607.971 761.79C613.943 758.873 614.359 758.873 616.998 761.234C619.498 763.595 619.915 763.456 625.748 760.54C628.943 758.873 633.109 756.651 634.637 755.54L637.693 753.595L633.248 744.012C630.748 738.178 628.109 734.29 626.859 734.29C625.748 734.29 621.443 735.817 617.276 737.762Z" fill="#F8F8FA"/>
<path d="M524.082 776.513C515.332 778.179 508.11 780.124 508.249 780.818C508.388 781.651 509.221 785.124 510.193 788.874C511.721 794.29 512.415 795.263 514.499 794.707C517.693 793.596 517.693 794.568 514.777 805.124L512.554 813.457L507.277 806.235C501.443 798.04 500.888 796.79 503.804 796.79C507.138 796.79 507.415 794.985 505.193 787.346C503.388 781.096 502.693 780.263 500.054 780.818C498.388 781.235 491.027 782.485 483.804 783.596C461.582 787.207 462.971 786.651 463.804 791.651C465.61 802.207 465.61 802.346 469.777 802.346C473.388 802.346 475.61 804.707 490.054 824.013C499.915 837.207 506.86 845.401 507.971 844.985C508.943 844.568 513.249 843.874 517.415 843.318C521.582 842.763 525.749 841.929 526.582 841.374C527.415 840.818 531.165 829.151 534.777 815.54C541.443 790.818 541.582 790.54 545.61 789.846C550.054 789.013 550.054 788.735 548.249 777.624C547.415 772.207 546.721 772.207 524.082 776.513Z" fill="#F8F8FA"/>
<path d="M362.97 784.29V792.624H367.137C371.998 792.624 371.998 792.624 369.22 808.04C365.748 826.79 366.165 825.957 361.72 825.957C358.387 825.957 357.554 826.651 356.859 830.262C354.776 841.096 352.693 840.124 386.998 845.262C403.943 847.762 419.498 850.124 421.443 850.54C424.637 851.096 425.332 850.54 426.72 846.651C427.554 844.151 428.665 838.874 429.082 834.846L430.054 827.624L424.637 826.096C421.582 825.262 416.998 824.151 414.082 823.735C409.498 822.901 408.804 823.179 406.72 827.346C404.498 831.651 404.082 831.79 398.248 831.096C394.776 830.818 391.72 830.124 391.304 829.846C391.026 829.429 391.165 827.068 391.582 824.568C392.554 820.124 392.693 820.124 399.22 820.679L405.748 821.374L406.72 815.262C407.693 808.179 406.998 806.512 402.554 806.512C397.693 806.512 394.915 805.124 394.915 802.485C394.915 797.762 397.137 796.512 403.109 797.485C407.832 798.318 408.804 799.012 408.804 801.651C408.804 805.262 410.054 805.818 420.748 807.207C428.804 808.179 428.665 808.596 430.332 793.874L431.304 785.957L422.554 784.568C417.693 783.735 404.359 781.79 392.832 780.124C381.443 778.596 369.915 776.929 367.554 776.512L362.97 775.818V784.29Z" fill="#F8F8FA"/>
<path d="M304.082 24.9843C302.415 26.2343 301.721 28.1787 302.138 30.8176C302.554 34.5676 303.11 34.9843 307.415 34.9843C311.721 34.9843 312.277 34.5676 312.693 30.8176C313.11 27.2065 310.332 23.1787 307.415 23.1787C306.999 23.1787 305.471 24.0121 304.082 24.9843Z" fill="#F8F8FA"/>
<path d="M581.026 25.1228C580.193 26.2339 579.637 28.595 579.915 30.4005C580.193 32.7617 581.304 33.7339 584.637 34.0117C590.332 34.5672 593.109 31.3728 591.026 26.6505C589.221 22.7617 583.804 21.9283 581.026 25.1228Z" fill="#F8F8FA"/>
<path d="M604.36 31.6523C601.443 33.319 601.026 38.4579 603.526 40.9579C606.026 43.4579 611.304 42.9023 612.971 39.9857C614.637 36.6523 613.526 33.319 610.054 31.5134C607.137 29.8468 607.276 29.8468 604.36 31.6523Z" fill="#F8F8FA"/>
<path d="M281.304 33.1765C278.942 35.5376 279.22 40.5376 281.72 42.621C282.831 43.5932 285.192 44.0098 287.276 43.4543C293.248 41.9265 291.442 31.5098 285.192 31.5098C283.942 31.5098 282.276 32.2043 281.304 33.1765Z" fill="#F8F8FA"/>
<path d="M625.888 40.9575C622.138 43.3186 623.249 50.6797 627.554 51.7908C631.86 52.9019 635.193 50.4019 635.193 46.2353C635.193 40.9575 630.193 38.1797 625.888 40.9575Z" fill="#F8F8FA"/>
<path d="M259.082 42.9017C254.637 47.3461 259.637 54.985 265.748 53.0406C269.22 51.9294 270.887 46.0961 268.526 43.3183C266.443 40.8183 261.443 40.5406 259.082 42.9017Z" fill="#F8F8FA"/>
<path d="M647.415 51.0966C644.22 52.9022 644.082 60.1244 647.137 61.2355C655.609 64.43 661.165 55.1244 653.109 50.9578C650.193 49.2911 650.332 49.2911 647.415 51.0966Z" fill="#F8F8FA"/>
<path d="M239.082 52.4843C236.166 54.151 235.749 59.2899 238.249 61.7899C240.749 64.2899 246.027 63.7343 247.693 60.8177C249.36 57.4843 248.249 54.151 244.777 52.3455C241.86 50.6788 241.999 50.6788 239.082 52.4843Z" fill="#F8F8FA"/>
<path d="M666.304 64.012C665.887 65.1231 665.749 67.4842 666.026 69.2897C666.304 71.9286 667.276 72.4842 671.304 72.4842C675.887 72.4842 676.165 72.2064 676.165 67.6231C676.165 63.1786 675.749 62.762 671.582 62.3453C668.665 62.0675 666.86 62.6231 666.304 64.012Z" fill="#F8F8FA"/>
<path d="M217.276 65.3997C216.165 66.7886 215.748 69.0108 216.304 71.0941C217.137 74.1497 217.97 74.7053 221.581 74.2886C226.859 73.733 229.637 70.1219 227.415 66.5108C225.47 63.4553 219.498 62.7608 217.276 65.3997Z" fill="#F8F8FA"/>
<path d="M685.749 78.0393C684.638 82.6226 687.416 85.956 691.86 85.4004C699.916 84.4282 699.221 75.6782 691.027 74.8449C687.416 74.4282 686.582 74.9837 685.749 78.0393Z" fill="#F8F8FA"/>
<path d="M196.86 77.8988C196.443 79.0099 196.304 81.3709 196.582 83.1764C196.86 85.8153 197.832 86.3709 201.86 86.3709C206.443 86.3709 206.721 86.0931 206.721 81.5098C206.721 77.0653 206.304 76.6487 202.138 76.232C199.221 75.9542 197.415 76.5099 196.86 77.8988Z" fill="#F8F8FA"/>
<path d="M706.304 88.7337C705.332 89.7059 704.638 91.6504 704.638 93.317C704.638 99.4281 712.971 102.067 715.749 96.9281C717.693 93.1781 717.554 91.7892 714.915 89.2892C712.415 86.6504 708.665 86.3726 706.304 88.7337Z" fill="#F8F8FA"/>
<path d="M177.415 91.9291C176.86 93.0402 176.999 95.5402 177.415 97.4846C178.11 100.263 179.221 100.957 182.415 100.957C187.554 100.957 190.887 95.5402 187.971 91.9291C185.749 89.2902 178.387 89.1513 177.415 91.9291Z" fill="#F8F8FA"/>
<path d="M724.359 104.01C720.47 107.899 723.943 114.01 729.776 113.177C733.943 112.621 736.304 108.593 734.359 105.399C732.415 102.482 726.72 101.649 724.359 104.01Z" fill="#F8F8FA"/>
<path d="M160.193 105.678C156.304 110.539 161.72 118.595 166.859 115.4C169.776 113.456 170.748 106.511 168.248 104.984C165.47 103.178 162.137 103.456 160.193 105.678Z" fill="#F8F8FA"/>
<path d="M742.137 119.707C739.776 122.485 741.443 128.18 744.776 129.152C748.248 129.985 753.248 126.513 753.248 123.319C753.248 118.041 745.609 115.541 742.137 119.707Z" fill="#F8F8FA"/>
<path d="M142.415 120.679C141.442 121.651 140.748 123.596 140.748 125.262C140.748 131.374 149.081 134.012 151.859 128.874C153.804 125.124 153.665 123.735 151.026 121.235C148.526 118.596 144.776 118.318 142.415 120.679Z" fill="#F8F8FA"/>
<path d="M759.082 135.955C755.193 139.844 758.665 145.955 764.499 145.122C768.665 144.567 771.026 140.539 769.082 137.344C767.137 134.428 761.443 133.594 759.082 135.955Z" fill="#F8F8FA"/>
<path d="M125.749 137.344C123.388 139.706 123.666 144.706 126.166 146.789C127.277 147.761 129.638 148.178 131.721 147.622C135.054 146.789 135.888 144.706 135.193 139.844C134.638 135.817 128.804 134.289 125.749 137.344Z" fill="#F8F8FA"/>
<path d="M775.748 152.624C771.998 156.374 774.776 163.457 779.776 163.457C782.971 163.457 786.582 158.179 785.471 155.263C783.943 150.957 778.804 149.568 775.748 152.624Z" fill="#F8F8FA"/>
<path d="M108.804 156.51C106.582 160.677 109.359 164.844 114.359 164.844C118.804 164.844 120.748 161.372 119.22 156.51C118.665 154.566 117.137 153.733 114.359 153.733C111.72 153.733 109.776 154.705 108.804 156.51Z" fill="#F8F8FA"/>
<path d="M790.748 170.955C786.859 175.817 792.276 183.872 797.415 180.678C800.332 178.733 801.304 171.789 798.804 170.261C796.026 168.455 792.693 168.733 790.748 170.955Z" fill="#F8F8FA"/>
<path d="M94.0815 173.735C93.6648 174.846 93.5259 177.207 93.8037 179.013C94.0815 181.651 95.0537 182.207 99.0815 182.207C103.665 182.207 103.943 181.929 103.943 177.346C103.943 172.901 103.526 172.485 99.3593 172.068C96.4426 171.79 94.637 172.346 94.0815 173.735Z" fill="#F8F8FA"/>
<path d="M803.804 190.399C803.387 191.51 803.249 193.871 803.526 195.677C803.804 198.316 804.776 198.871 808.804 198.871C813.387 198.871 813.665 198.593 813.665 194.01C813.665 189.566 813.249 189.149 809.082 188.732C806.165 188.454 804.36 189.01 803.804 190.399Z" fill="#F8F8FA"/>
<path d="M81.1653 191.787C80.193 192.898 79.6375 195.537 79.9153 197.76C80.3319 201.232 80.8875 201.648 85.193 201.648C89.4986 201.648 90.0541 201.232 90.4708 197.482C91.1653 191.371 84.7764 187.482 81.1653 191.787Z" fill="#F8F8FA"/>
<path d="M817.415 209.569C813.526 213.458 816.998 219.569 822.832 218.735C826.998 218.18 829.359 214.152 827.415 210.958C825.47 208.041 819.776 207.208 817.415 209.569Z" fill="#F8F8FA"/>
<path d="M67.415 212.345C63.665 216.095 66.5817 221.789 72.1372 221.789C76.3039 221.789 78.8039 218.456 77.6928 214.15C76.9983 211.511 75.8872 210.678 72.9705 210.678C70.8872 210.678 68.3872 211.372 67.415 212.345Z" fill="#F8F8FA"/>
<path d="M829.915 229.011C828.942 229.983 828.248 231.928 828.248 233.594C828.248 239.706 836.581 242.344 839.359 237.206C841.304 233.456 841.165 232.067 838.526 229.567C836.026 226.928 832.276 226.65 829.915 229.011Z" fill="#F8F8FA"/>
<path d="M56.0267 232.069C52.1378 236.93 57.5545 244.985 62.6934 241.791C67.5545 238.735 65.7489 230.124 60.1934 230.124C58.8045 230.124 56.9989 231.096 56.0267 232.069Z" fill="#F8F8FA"/>
<path d="M841.026 249.844C838.665 252.206 838.943 257.206 841.443 259.289C842.554 260.261 844.915 260.678 846.998 260.122C852.971 258.594 851.165 248.178 844.915 248.178C843.665 248.178 841.998 248.872 841.026 249.844Z" fill="#F8F8FA"/>
<path d="M45.1928 252.624C41.4428 256.374 44.2206 263.457 49.2206 263.457C52.1373 263.457 56.0261 259.846 56.0261 257.207C56.0261 252.346 48.665 249.151 45.1928 252.624Z" fill="#F8F8FA"/>
<path d="M849.637 272.345C849.22 273.456 849.082 275.817 849.359 277.623C849.637 280.123 850.748 280.956 854.22 281.234C859.637 281.789 862.554 277.761 860.193 273.178C858.387 269.845 850.748 269.289 849.637 272.345Z" fill="#F8F8FA"/>
<path d="M34.3592 276.65C33.1092 281.928 34.637 284.289 39.2203 284.289C44.3592 284.289 47.137 280.122 44.9147 275.956C42.6925 271.65 35.4703 272.206 34.3592 276.65Z" fill="#F8F8FA"/>
<path d="M860.471 292.762C854.638 294.984 857.276 303.734 863.804 303.734C867.832 303.734 870.471 300.401 869.36 296.234C868.388 292.484 864.915 291.095 860.471 292.762Z" fill="#F8F8FA"/>
<path d="M27.6934 295.816C26.0268 297.066 25.3323 299.011 25.749 301.65C26.1656 305.4 26.7212 305.816 30.8879 305.816C36.999 305.816 39.3601 300.955 35.1934 296.789C31.999 293.594 31.0268 293.455 27.6934 295.816Z" fill="#F8F8FA"/>
<path d="M869.082 314.845C865.332 316.234 863.943 319.845 865.748 323.317C867.415 326.234 872.693 326.79 875.193 324.29C879.776 319.706 875.054 312.623 869.082 314.845Z" fill="#F8F8FA"/>
<path d="M19.0815 319.567C18.6648 320.678 18.5259 323.039 18.8037 324.845C19.0815 327.484 20.0537 328.039 24.0815 328.039C28.6648 328.039 28.9426 327.761 28.9426 323.178C28.9426 318.734 28.5259 318.317 24.3593 317.9C21.4426 317.622 19.637 318.178 19.0815 319.567Z" fill="#F8F8FA"/>
<path d="M872.97 338.732C870.332 341.371 871.026 346.509 874.22 348.176C876.443 349.426 877.832 349.287 880.47 347.482C884.22 345.121 884.498 343.732 882.415 339.704C880.748 336.787 875.47 336.232 872.97 338.732Z" fill="#F8F8FA"/>
<path d="M12.9708 341.927C11.9986 343.038 11.582 345.399 12.1375 347.344C13.6653 353.594 21.9986 353.594 23.5264 347.344C24.6375 343.177 21.9986 339.844 17.832 339.844C16.1653 339.844 13.9431 340.816 12.9708 341.927Z" fill="#F8F8FA"/>
<path d="M878.526 360.957C876.165 363.318 876.443 370.263 878.943 371.235C880.054 371.791 882.554 371.652 884.498 371.235C887.276 370.541 887.971 369.43 887.971 366.235C887.971 360.68 882.137 357.346 878.526 360.957Z" fill="#F8F8FA"/>
<path d="M7.97112 365.399C7.55446 366.51 7.41557 368.871 7.69334 370.677C7.97112 373.316 8.94334 373.871 12.9711 373.871C17.5545 373.871 17.8322 373.593 17.8322 369.01C17.8322 364.566 17.4156 364.149 13.2489 363.732C10.3322 363.454 8.52668 364.01 7.97112 365.399Z" fill="#F8F8FA"/>
<path d="M881.86 385.122C880.61 386.234 879.638 388.178 879.638 389.15C879.638 390.122 880.61 392.067 881.86 393.178C886.027 397.345 892.138 394.984 892.138 389.15C892.138 383.317 886.027 380.956 881.86 385.122Z" fill="#F8F8FA"/>
<path d="M5.74832 387.207C2.83165 388.873 2.41498 394.012 4.91498 396.512C7.41498 399.012 12.6928 398.457 14.3594 395.54C16.3039 391.79 16.165 390.401 13.5261 387.901C11.0261 385.401 9.08165 385.123 5.74832 387.207Z" fill="#F8F8FA"/>
<path d="M884.082 408.179C879.637 412.624 884.637 420.263 890.748 418.318C894.22 417.207 895.887 411.374 893.526 408.596C891.443 406.096 886.443 405.818 884.082 408.179Z" fill="#F8F8FA"/>
<path d="M2.6929 411.512C0.0540094 414.012 -0.0848794 415.401 1.85957 419.151C4.63734 424.29 12.9707 421.651 12.9707 415.54C12.9707 409.706 6.85957 407.345 2.6929 411.512Z" fill="#F8F8FA"/>
<path d="M885.47 431.789C881.026 436.233 886.026 443.872 892.137 441.927C895.47 440.816 896.859 436.511 894.915 432.9C893.248 429.844 888.109 429.15 885.47 431.789Z" fill="#F8F8FA"/>
<path d="M2.27626 434.012C-1.47374 436.373 -0.362631 443.734 3.94293 444.845C8.24848 445.957 11.5818 443.457 11.5818 439.29C11.5818 434.012 6.58181 431.234 2.27626 434.012Z" fill="#F8F8FA"/>
<path d="M885.193 455.815C884.22 456.926 883.804 459.287 884.359 461.232C885.748 466.926 894.359 467.065 895.748 461.232C896.859 457.065 894.22 453.732 890.054 453.732C888.387 453.732 886.165 454.704 885.193 455.815Z" fill="#F8F8FA"/>
<path d="M2.13786 457.76C-0.362142 459.288 0.61008 466.232 3.66564 468.177C6.72119 470.121 10.749 467.76 11.3045 463.593C12.1379 458.038 6.86008 454.704 2.13786 457.76Z" fill="#F8F8FA"/>
<path d="M884.082 479.012C880.054 483.039 885.054 490.4 890.888 488.873C894.221 487.9 895.888 482.206 893.527 479.428C891.443 476.928 886.443 476.65 884.082 479.012Z" fill="#F8F8FA"/>
<path d="M2.8322 481.096C1.02664 482.763 1.85998 489.429 3.94331 491.235C9.22109 495.541 16.1655 486.652 11.3044 481.791C9.49886 479.985 4.35998 479.568 2.8322 481.096Z" fill="#F8F8FA"/>
<path d="M881.581 502.899C881.165 504.01 881.026 506.371 881.304 508.177C881.581 510.816 882.554 511.371 886.581 511.371C891.165 511.371 891.443 511.093 891.443 506.51C891.443 502.066 891.026 501.649 886.859 501.232C883.943 500.954 882.137 501.51 881.581 502.899Z" fill="#F8F8FA"/>
<path d="M4.63743 506.373C2.55409 510.401 2.83187 511.79 6.58187 514.151C10.8874 517.068 15.7485 514.846 15.7485 510.262C15.7485 503.873 7.55409 501.096 4.63743 506.373Z" fill="#F8F8FA"/>
<path d="M879.36 524.707C876.443 526.374 876.026 531.512 878.526 534.012C883.943 539.429 892.415 531.651 887.276 525.957C884.499 522.901 882.832 522.624 879.36 524.707Z" fill="#F8F8FA"/>
<path d="M7.97059 530.817C6.85948 535.4 9.63726 538.733 14.0817 538.178C22.1373 537.206 21.4428 528.456 13.2484 527.622C9.63726 527.206 8.80393 527.761 7.97059 530.817Z" fill="#F8F8FA"/>
<path d="M872.693 549.565C869.499 555.538 875.054 561.093 881.027 557.899C884.082 556.232 884.777 551.093 882.138 548.454C879.499 545.815 874.36 546.51 872.693 549.565Z" fill="#F8F8FA"/>
<path d="M14.3597 551.51C10.4708 556.371 15.8875 564.427 21.0264 561.232C23.943 559.288 24.9153 552.343 22.4153 550.816C19.6375 549.01 16.3042 549.288 14.3597 551.51Z" fill="#F8F8FA"/>
<path d="M868.248 570.539C865.332 572.206 864.915 577.344 867.415 579.844C869.915 582.344 875.193 581.789 876.859 578.872C878.804 575.122 878.665 573.733 876.026 571.233C873.526 568.733 871.582 568.456 868.248 570.539Z" fill="#F8F8FA"/>
<path d="M22.4151 572.761C19.2207 573.595 17.6929 579.567 19.9151 582.206C20.8874 583.317 22.9707 584.289 24.6374 584.289C30.6096 584.289 33.1096 578.178 28.804 574.011C26.5818 571.65 26.4429 571.65 22.4151 572.761Z" fill="#F8F8FA"/>
<path d="M861.026 593.039C859.36 594.289 858.665 596.234 859.082 598.872C859.499 602.622 860.054 603.039 864.36 603.039C868.665 603.039 869.221 602.622 869.638 598.872C870.054 595.261 867.276 591.234 864.36 591.234C863.943 591.234 862.415 592.067 861.026 593.039Z" fill="#F8F8FA"/>
<path d="M29.9151 595.539C27.2762 596.511 26.7206 597.622 27.1373 601.233C27.554 605.4 27.9706 605.816 32.4151 605.816C36.8595 605.816 37.2762 605.4 37.6929 601.372C38.2484 596.094 34.9151 593.594 29.9151 595.539Z" fill="#F8F8FA"/>
<path d="M852.137 615.122C851.165 616.095 850.471 618.595 850.471 620.678C850.471 623.595 851.304 624.706 853.943 625.4C858.248 626.511 861.582 624.011 861.582 619.845C861.582 616.233 859.082 613.456 856.026 613.456C854.776 613.456 853.11 614.15 852.137 615.122Z" fill="#F8F8FA"/>
<path d="M36.86 617.902C35.8878 618.874 35.1934 620.818 35.1934 622.485C35.1934 628.596 43.5267 631.235 46.3045 626.096C49.6378 619.846 41.7211 613.041 36.86 617.902Z" fill="#F8F8FA"/>
<path d="M841.304 637.622C840.887 638.733 840.749 641.094 841.026 642.899C841.304 645.538 842.276 646.094 846.304 646.094C850.887 646.094 851.165 645.816 851.165 641.233C851.165 636.788 850.749 636.372 846.582 635.955C843.665 635.677 841.86 636.233 841.304 637.622Z" fill="#F8F8FA"/>
<path d="M46.3045 640.4C45.4711 641.511 44.9156 643.872 45.1934 645.678C45.4711 648.039 46.5822 649.011 49.9156 649.289C55.61 649.844 58.3878 646.65 56.3045 641.928C54.4989 638.039 49.0822 637.206 46.3045 640.4Z" fill="#F8F8FA"/>
<path d="M830.47 658.735C827.97 665.124 831.72 669.708 837.415 667.624C843.942 665.124 842.276 656.513 835.331 656.513C832.97 656.513 831.026 657.346 830.47 658.735Z" fill="#F8F8FA"/>
<path d="M56.5815 661.233C56.1648 662.344 56.0259 664.705 56.3037 666.51C56.5815 669.01 57.6926 669.844 61.3037 670.121C64.9148 670.538 66.0259 669.983 66.9981 667.344C68.8037 662.621 66.4426 659.288 61.4426 659.288C59.2204 659.288 56.9981 660.121 56.5815 661.233Z" fill="#F8F8FA"/>
<path d="M819.221 678.734C814.082 684.429 822.554 692.206 827.971 686.79C830.471 684.29 829.915 679.012 826.999 677.345C823.249 675.401 822.138 675.54 819.221 678.734Z" fill="#F8F8FA"/>
<path d="M70.0539 680.678C69.0817 681.789 68.5261 684.428 68.8039 686.65C69.6373 693.595 79.6373 692.206 79.6373 685.122C79.6373 679.428 73.3873 676.511 70.0539 680.678Z" fill="#F8F8FA"/>
<path d="M805.193 698.871C804.637 699.982 804.776 702.482 805.193 704.426C805.887 707.204 806.998 707.898 810.193 707.898C815.331 707.898 818.665 702.482 815.748 698.871C813.526 696.232 806.165 696.093 805.193 698.871Z" fill="#F8F8FA"/>
<path d="M83.5266 699.707C80.61 701.374 80.1933 706.512 82.6933 709.012C88.11 714.429 96.5822 706.651 91.4433 700.957C88.6655 697.901 86.9989 697.624 83.5266 699.707Z" fill="#F8F8FA"/>
<path d="M792.415 716.51C788.665 720.26 791.443 727.344 796.443 727.344C799.36 727.344 803.249 723.733 803.249 721.094C803.249 716.233 795.888 713.038 792.415 716.51Z" fill="#F8F8FA"/>
<path d="M96.3038 719.704C95.3316 720.816 94.915 723.177 95.4705 725.121C96.9983 731.371 105.332 731.371 106.859 725.121C107.971 720.954 105.332 717.621 101.165 717.621C99.4983 717.621 97.2761 718.593 96.3038 719.704Z" fill="#F8F8FA"/>
<path d="M777.971 734.426C772.971 737.343 775.748 745.398 781.721 745.398C787.554 745.398 789.915 739.287 785.748 735.121C783.248 732.621 781.304 732.343 777.971 734.426Z" fill="#F8F8FA"/>
<path d="M111.86 737.346C109.221 739.985 109.915 745.124 112.971 746.791C116.582 748.735 120.887 747.347 121.999 744.013C123.943 737.902 116.304 732.902 111.86 737.346Z" fill="#F8F8FA"/>
<path d="M760.748 752.899C760.332 754.01 760.193 756.371 760.471 758.177C760.748 760.816 761.721 761.371 765.748 761.371C770.332 761.371 770.61 761.093 770.61 756.51C770.61 752.066 770.193 751.649 766.026 751.232C763.11 750.954 761.304 751.51 760.748 752.899Z" fill="#F8F8FA"/>
<path d="M127.693 755.262C123.665 761.095 130.61 767.901 136.026 763.456C138.804 760.956 138.387 755.539 135.332 753.734C131.443 751.651 130.054 751.928 127.693 755.262Z" fill="#F8F8FA"/>
<path d="M744.081 769.567C743.665 770.678 743.526 773.039 743.804 774.845C744.081 777.484 745.054 778.039 749.081 778.039C753.665 778.039 753.943 777.761 753.943 773.178C753.943 768.734 753.526 768.317 749.359 767.9C746.443 767.622 744.637 768.178 744.081 769.567Z" fill="#F8F8FA"/>
<path d="M144.915 770.955C141.026 775.817 146.443 783.872 151.582 780.678C156.443 777.622 154.638 769.011 149.082 769.011C147.693 769.011 145.888 769.983 144.915 770.955Z" fill="#F8F8FA"/>
<path d="M727.137 784.567C724.498 787.206 725.193 792.345 728.248 794.011C733.526 796.928 739.359 790.956 736.581 785.539C734.915 782.622 729.637 782.067 727.137 784.567Z" fill="#F8F8FA"/>
<path d="M163.526 785.402C160.61 787.208 160.054 792.208 162.276 794.569C166.582 798.735 172.693 796.374 172.693 790.541C172.693 785.402 167.693 782.624 163.526 785.402Z" fill="#F8F8FA"/>
<path d="M708.943 798.735C707.97 799.846 707.415 802.485 707.693 804.707C708.526 811.791 718.526 810.263 718.526 802.902C718.526 797.902 711.998 794.985 708.943 798.735Z" fill="#F8F8FA"/>
<path d="M180.193 801.513C179.776 802.624 179.637 804.985 179.915 806.791C180.193 809.291 181.304 810.124 184.776 810.402C190.193 810.957 193.109 806.929 190.748 802.346C188.943 799.013 181.304 798.457 180.193 801.513Z" fill="#F8F8FA"/>
<path d="M689.36 812.623C685.471 817.485 690.887 825.54 696.026 822.346C700.887 819.29 699.082 810.679 693.526 810.679C692.137 810.679 690.332 811.651 689.36 812.623Z" fill="#F8F8FA"/>
<path d="M201.582 813.593C200.054 814.426 199.082 816.648 199.082 819.009C199.082 822.204 199.776 823.315 202.554 824.009C207.693 825.259 210.193 823.732 210.193 819.287C210.193 813.037 206.582 810.676 201.582 813.593Z" fill="#F8F8FA"/>
<path d="M669.36 825.4C668.11 826.511 667.138 828.455 667.138 829.428C667.138 830.4 668.11 832.344 669.36 833.455C673.527 837.622 679.638 835.261 679.638 829.428C679.638 823.594 673.527 821.233 669.36 825.4Z" fill="#F8F8FA"/>
<path d="M220.749 826.789C216.582 830.955 218.943 837.066 224.777 837.066C230.61 837.066 232.971 830.955 228.804 826.789C227.693 825.539 225.749 824.566 224.777 824.566C223.804 824.566 221.86 825.539 220.749 826.789Z" fill="#F8F8FA"/>
<path d="M649.915 836.094C648.248 837.344 647.554 839.288 647.971 841.927C648.387 845.677 648.943 846.094 653.248 846.094C657.554 846.094 658.11 845.677 658.526 841.927C658.943 838.316 656.165 834.288 653.248 834.288C652.832 834.288 651.304 835.122 649.915 836.094Z" fill="#F8F8FA"/>
<path d="M242.554 837.204C239.082 838.454 238.248 843.732 241.026 846.51C243.665 849.149 248.804 848.454 250.47 845.26C253.387 839.982 248.387 834.982 242.554 837.204Z" fill="#F8F8FA"/>
<path d="M626.859 848.179C623.665 854.151 629.22 859.706 635.193 856.512C638.248 854.845 638.943 849.706 636.304 847.067C633.665 844.429 628.526 845.123 626.859 848.179Z" fill="#F8F8FA"/>
<path d="M261.582 848.871C259.221 851.788 260.888 857.343 264.499 858.316C268.665 859.427 271.165 858.038 272.138 854.288C273.249 850.121 270.61 846.788 266.443 846.788C264.776 846.788 262.554 847.76 261.582 848.871Z" fill="#F8F8FA"/>
<path d="M284.915 856.652C281.999 858.319 281.582 863.458 284.082 865.958C286.582 868.458 291.86 867.902 293.526 864.985C295.193 861.652 294.082 858.319 290.61 856.513C287.693 854.847 287.832 854.847 284.915 856.652Z" fill="#F8F8FA"/>
<path d="M605.193 857.068C604.776 858.179 604.637 860.54 604.915 862.346C605.471 866.512 613.526 867.762 615.471 863.873C617.693 859.568 615.054 855.123 610.193 855.123C607.832 855.123 605.609 855.957 605.193 857.068Z" fill="#F8F8FA"/>
<path d="M584.915 863.595C581.999 865.262 581.582 870.401 584.082 872.901C586.721 875.54 591.86 874.845 593.526 871.651C594.776 869.428 594.638 868.04 592.832 865.401C590.471 861.79 588.665 861.373 584.915 863.595Z" fill="#F8F8FA"/>
<path d="M306.304 865.124C302.693 868.735 305.332 875.957 310.193 875.957C313.248 875.957 315.193 874.29 316.304 870.957C317.97 865.401 310.332 861.096 306.304 865.124Z" fill="#F8F8FA"/>
<path d="M561.859 870.676C559.498 873.037 559.776 879.982 562.276 880.954C563.387 881.509 565.887 881.371 567.831 880.954C570.609 880.259 571.304 879.148 571.304 875.954C571.304 870.398 565.47 867.065 561.859 870.676Z" fill="#F8F8FA"/>
<path d="M328.526 872.066C324.081 876.51 329.081 884.149 335.193 882.205C338.665 881.094 340.331 875.26 337.97 872.483C335.887 869.983 330.887 869.705 328.526 872.066Z" fill="#F8F8FA"/>
<path d="M538.804 876.789C534.638 880.955 536.999 887.066 542.832 887.066C548.666 887.066 551.027 880.955 546.86 876.789C545.749 875.539 543.804 874.566 542.832 874.566C541.86 874.566 539.916 875.539 538.804 876.789Z" fill="#F8F8FA"/>
<path d="M351.443 876.79C349.359 878.874 350.47 885.54 353.248 887.068C357.832 889.429 361.859 886.513 361.304 881.096C360.887 877.346 360.332 876.651 356.72 876.235C354.359 875.957 351.998 876.235 351.443 876.79Z" fill="#F8F8FA"/>
<path d="M374.082 882.901C370.887 888.873 376.443 894.429 382.415 891.235C385.471 889.568 386.165 884.429 383.526 881.79C380.887 879.151 375.749 879.846 374.082 882.901Z" fill="#F8F8FA"/>
<path d="M514.915 882.067C514.499 883.178 514.36 885.539 514.638 887.345C514.915 889.984 515.888 890.539 519.915 890.539C524.499 890.539 524.777 890.261 524.777 885.678C524.777 881.234 524.36 880.817 520.193 880.4C517.277 880.122 515.471 880.678 514.915 882.067Z" fill="#F8F8FA"/>
<path d="M397.971 884.567C395.609 886.928 395.887 891.928 398.387 894.011C401.165 896.372 406.998 894.706 408.109 891.233C410.054 885.122 402.415 880.122 397.971 884.567Z" fill="#F8F8FA"/>
<path d="M491.721 883.732C489.638 885.815 490.749 892.482 493.527 894.01C498.11 896.371 502.138 893.454 501.582 888.037C501.165 884.287 500.61 883.593 496.999 883.176C494.638 882.898 492.277 883.176 491.721 883.732Z" fill="#F8F8FA"/>
<path d="M422.415 885.816C419.499 887.483 419.082 892.622 421.582 895.122C424.082 897.622 429.36 897.066 431.026 894.15C432.971 890.4 432.832 889.011 430.193 886.511C427.693 884.011 425.749 883.733 422.415 885.816Z" fill="#F8F8FA"/>
<path d="M468.804 885.955C466.582 888.177 466.721 893.316 469.082 895.399C471.999 897.761 477.137 896.511 478.387 893.177C480.471 887.205 473.11 881.649 468.804 885.955Z" fill="#F8F8FA"/>
<path d="M444.915 887.761C443.943 888.872 443.526 891.234 444.082 893.317C444.776 896.234 445.749 896.789 449.776 896.789C453.804 896.789 454.776 896.234 455.471 893.317C456.582 889.011 454.082 885.678 449.776 885.678C448.11 885.678 445.887 886.65 444.915 887.761Z" fill="#F8F8FA"/>
</g>
<defs>
<clipPath id="clip0_611_5925">
<rect width="897" height="897" fill="white"/>
</clipPath>
</defs>
</svg>
