<svg width="40" height="40" viewBox="0 0 40 40" fill="none" xmlns="http://www.w3.org/2000/svg">
<rect width="40" height="40" rx="10" fill="#132F63"/>
<path d="M14.7857 8C17.0119 8 18.8095 9.82661 18.8095 12.0887C18.8095 14.3508 17.0119 16.1774 14.7857 16.1774C12.5595 16.1774 10.7619 14.3387 10.7619 12.0887C10.7619 9.83871 12.5595 8 14.7857 8ZM27.2381 26.0363C27.75 26.0363 28.1667 26.3024 28.1667 26.6411C28.1667 26.9798 27.75 27.246 27.2381 27.246C26.7262 27.246 26.3095 26.9798 26.3095 26.6411C26.3095 26.3024 26.7262 26.0363 27.2381 26.0363ZM22.5357 21.2823L22.0714 22.625C21.5952 21.621 21.119 20.6532 20.75 19.9879C20.3452 19.1169 19.7143 18.379 18.9286 17.8589C18.1429 17.3387 17.2024 17.0363 16.2024 17.0363H10.0238C7.25 17.0242 5 19.3347 5 22.129V29.8589C5 31.0444 5.94048 32 7.10714 32H31.2381L35 21.2823H22.5357ZM30.4167 30.8145H15.3095V30.125C15.3095 29.0605 14.4524 28.1895 13.4048 28.1895H8.75V22.9516C8.75 22.6855 8.96429 22.4798 9.21429 22.4798C9.46429 22.4798 9.67857 22.6976 9.67857 22.9516V27.2339H13.3929C14.869 27.2339 16.0833 28.3831 16.2262 29.8589H20.7619L23.3452 22.4798H33.3333L30.4167 30.8145Z" fill="white"/>
</svg>
