<svg width="40" height="40" viewBox="0 0 40 40" fill="none" xmlns="http://www.w3.org/2000/svg">
<mask id="mask0_5_17" style="mask-type:alpha" maskUnits="userSpaceOnUse" x="0" y="0" width="40" height="40">
<path d="M35.5556 0.000430478H13.7333L15 0L24.5 2.56962e-05L19.5 0H16H15L13.7333 0.000430478H4.44444C3.26679 0.00394761 2.13837 0.473325 1.30563 1.30605C0.472899 2.13877 0.00351717 3.26718 0 4.44483V35.5556C0.00351717 36.7332 0.472899 37.8617 1.30563 38.6944C2.13837 39.5271 3.26679 39.9965 4.44444 40H35.5556C36.7332 39.9965 37.8616 39.5271 38.6944 38.6944C39.5271 37.8617 39.9965 36.7332 40 35.5556V4.44483C39.9965 3.26718 39.5271 2.13877 38.6944 1.30605C37.8616 0.473325 36.7332 0.00394761 35.5556 0.000430478ZM15.5556 11.1114L21.7556 17.3202L27.3556 11.7203L24.4444 8.88922H33.3333V17.778L30.4978 14.8647L21.76 23.6091L15.5556 17.4002L9.80889 23.1424L6.66667 20.0002L15.5556 11.1114ZM35.5556 33.3334H4.44444V28.889H35.5556V33.3334Z" fill="#132F63"/>
</mask>
<g mask="url(#mask0_5_17)">
<rect width="40" height="40" rx="10" fill="#132F63"/>
</g>
</svg>
