<svg width="40" height="40" viewBox="0 0 40 40" fill="none" xmlns="http://www.w3.org/2000/svg">
<rect width="40" height="40" rx="10" fill="#132F63"/>
<path d="M19.8518 20.844C19.103 20.9064 18.4165 20.5944 17.6677 20.3448C13.7363 19.0343 9.74259 17.7239 5.81123 16.4134C5.56162 16.2886 5.37441 16.2262 5.18721 16.039C4.9376 15.8518 4.9376 15.6022 5.18721 15.415C5.37441 15.2902 5.62402 15.103 5.87363 15.0406C10.117 13.7925 14.298 12.5445 18.5413 11.234C19.4774 10.922 20.4758 10.922 21.4743 11.234C25.6552 12.4821 29.8362 13.7301 34.0172 14.9782C34.2668 15.103 34.5164 15.1654 34.766 15.3526C35.078 15.5398 35.078 15.8518 34.766 16.039C34.5788 16.1638 34.3916 16.2886 34.142 16.351C29.961 17.7239 25.78 19.1591 21.5367 20.532C20.975 20.7816 20.4758 20.844 19.8518 20.844Z" fill="white"/>
<path d="M11.5525 21.0312C10.9285 20.9064 10.8037 21.2808 10.8037 21.5928C10.8037 23.2153 10.8037 24.7754 10.8037 26.3354C10.8037 26.8971 10.9909 27.2091 11.3653 27.5835C11.4901 27.7083 11.6773 27.8331 11.8022 27.9579C12.8006 28.6443 13.9862 29.0811 15.1719 29.3932C17.5432 30.0172 19.9145 30.142 22.3482 29.83C23.9082 29.6428 25.4683 29.206 26.9036 28.5819C27.5276 28.2699 28.1516 27.9579 28.5884 27.4587C28.9004 27.1467 29.0252 26.8347 28.9628 26.3978C29.0252 24.9002 29.0252 23.3401 29.0252 21.7801C29.0252 20.9064 28.4012 21.0312 28.1516 21.0936C25.9675 21.8425 23.6586 22.5289 21.4745 23.2777C20.3513 23.6521 19.2905 23.6521 18.2296 23.2777L11.5525 21.0312Z" fill="white"/>
<path d="M32.3953 19.5959C32.2081 19.6583 32.1457 19.7208 32.1457 19.9704C32.1457 21.4056 32.1457 22.7785 32.1457 24.2137C32.1457 24.3385 32.0833 24.5257 32.0209 24.6505C31.7089 25.3994 31.3969 26.1482 31.1473 26.897C30.8977 27.5835 31.0225 28.3323 31.5217 28.8315C31.6465 29.0187 31.8961 29.2059 32.0833 29.3307C32.2705 29.5179 32.5825 29.5803 32.8321 29.6427C33.2689 29.7052 33.6434 29.4555 33.9554 29.2059C34.0802 29.0811 34.2674 28.9563 34.3922 28.7691C34.7666 28.2699 34.829 27.6459 34.7042 27.0842C34.517 26.2106 34.1426 25.4618 33.7682 24.713C33.6434 24.5881 33.6434 24.3385 33.6434 24.2137C33.6434 22.6537 33.6434 21.156 33.6434 19.5959C33.6434 19.2839 33.3938 19.3463 33.2689 19.4087L32.3953 19.5959Z" fill="white"/>
</svg>
