<svg width="40" height="40" viewBox="0 0 40 40" fill="none" xmlns="http://www.w3.org/2000/svg">
<rect width="40" height="40" rx="10" fill="#132F63"/>
<path d="M20 17.4285C18.5525 17.4285 17.375 18.5819 17.375 19.9999C17.375 21.4179 18.5525 22.5713 20 22.5713C21.4475 22.5713 22.625 21.4179 22.625 19.9999C22.625 18.5819 21.4475 17.4285 20 17.4285ZM20 20.857C19.5168 20.857 19.125 20.4737 19.125 19.9999C19.125 19.5261 19.5168 19.1428 20 19.1428C20.4832 19.1428 20.875 19.5261 20.875 19.9999C20.875 20.4737 20.4832 20.857 20 20.857Z" fill="white"/>
<path d="M32.25 8H7.75C6.78356 8 6 8.76757 6 9.71429V30.2857C6 31.2324 6.78356 32 7.75 32H32.25C33.2164 32 34 31.2324 34 30.2857V9.71429C34 8.76757 33.2164 8 32.25 8ZM9.5 12.2857C9.5 11.8124 9.89134 11.4286 10.375 11.4286H13.875C14.3587 11.4286 14.75 11.8124 14.75 12.2857C14.75 12.7591 14.3587 13.1429 13.875 13.1429H11.25V15.7143C11.25 16.1876 10.8587 16.5714 10.375 16.5714C9.89134 16.5714 9.5 16.1876 9.5 15.7143V12.2857ZM13.875 28.5714H10.375C9.89134 28.5714 9.5 28.1876 9.5 27.7143V24.2857C9.5 23.8124 9.89134 23.4286 10.375 23.4286C10.8587 23.4286 11.25 23.8124 11.25 24.2857V26.8571H13.875C14.3587 26.8571 14.75 27.2409 14.75 27.7143C14.75 28.1876 14.3587 28.5714 13.875 28.5714ZM20.875 25.1429C20.875 25.6162 20.4837 26 20 26C19.5163 26 19.125 25.6162 19.125 25.1429V24.1991C17.4134 23.8574 16.0625 22.5338 15.7134 20.8571H14.75C14.2663 20.8571 13.875 20.4734 13.875 20C13.875 19.5266 14.2663 19.1429 14.75 19.1429H15.7134C16.0625 17.4662 17.4134 16.1426 19.125 15.8009V14.8571C19.125 14.3838 19.5163 14 20 14C20.4837 14 20.875 14.3838 20.875 14.8571V15.8009C22.5866 16.1426 23.9375 17.4662 24.2866 19.1429H25.25C25.7337 19.1429 26.125 19.5266 26.125 20C26.125 20.4734 25.7337 20.8571 25.25 20.8571H24.2866C23.9375 22.5338 22.5866 23.8574 20.875 24.1991V25.1429ZM30.5 27.7143C30.5 28.1876 30.1087 28.5714 29.625 28.5714H26.125C25.6413 28.5714 25.25 28.1876 25.25 27.7143C25.25 27.2409 25.6413 26.8571 26.125 26.8571H28.75V24.2857C28.75 23.8124 29.1413 23.4286 29.625 23.4286C30.1087 23.4286 30.5 23.8124 30.5 24.2857V27.7143ZM30.5 15.7143C30.5 16.1876 30.1087 16.5714 29.625 16.5714C29.1413 16.5714 28.75 16.1876 28.75 15.7143V13.1429H26.125C25.6413 13.1429 25.25 12.7591 25.25 12.2857C25.25 11.8124 25.6413 11.4286 26.125 11.4286H29.625C30.1087 11.4286 30.5 11.8124 30.5 12.2857V15.7143Z" fill="white"/>
</svg>
