<svg width="40" height="40" viewBox="0 0 40 40" fill="none" xmlns="http://www.w3.org/2000/svg">
<rect width="40" height="40" rx="10" fill="#132F63"/>
<path d="M31.4242 25.9295V25.1694C31.4242 19.8433 27.7468 15.3611 22.7742 14.1304C22.7874 14.0203 22.8044 13.9086 22.8044 13.7951C22.8044 12.2539 21.5553 11 20.0141 11C18.4729 11 17.2213 12.2539 17.2213 13.7951C17.2213 13.9117 17.2117 14.0264 17.2257 14.1392C12.2715 15.3829 8.57576 19.8563 8.57576 25.1694V25.9295H7V29.081H33V25.9295H31.4242V25.9295ZM18.9119 13.7952C18.9119 13.1849 19.4084 12.6884 20.0188 12.6884C20.6291 12.6884 21.1255 13.1849 21.1255 13.7952C21.1255 13.8126 21.1237 13.8296 21.123 13.8468C20.7656 13.8132 20.4036 13.7952 20.0376 13.7952C19.6587 13.7952 19.2843 13.8141 18.9148 13.8501C18.9139 13.8317 18.9119 13.8137 18.9119 13.7952Z" fill="white"/>
</svg>
