<svg width="40" height="40" viewBox="0 0 40 40" fill="none" xmlns="http://www.w3.org/2000/svg">
  <rect width="40" height="40" rx="10" fill="#132F63"/>
  <g clip-path="url(#clip0_706_1361)">
    <path d="M6.73982 22.7826C7.12026 22.7826 7.38656 22.6304 7.53874 22.3261C7.69091 22.0217 7.69091 21.7174 7.53874 21.413C7.38656 21.1087 7.12026 20.9565 6.73982 20.9565C6.35939 20.9565 6.09309 21.1087 5.94091 21.413C5.78874 21.7174 5.78874 22.0217 5.94091 22.3261C6.09309 22.6304 6.35939 22.7826 6.73982 22.7826ZM27.7541 21.9552C27.659 21.8315 27.4759 21.5938 27.2048 21.2418C26.9338 20.8899 26.7364 20.6332 26.6128 20.4715C26.4891 20.3098 26.3084 20.0768 26.0707 19.7724C25.8329 19.4681 25.6308 19.216 25.4643 19.0163C25.2979 18.8166 25.1053 18.5931 24.8866 18.3458C24.6678 18.0985 24.4538 17.8655 24.2446 17.6467L22.4613 19.644C21.6719 20.538 20.6804 20.9755 19.4868 20.9565C18.2932 20.9375 17.3159 20.4715 16.555 19.5584C16.0129 18.9022 15.7442 18.1508 15.749 17.3043C15.7538 16.4579 16.0319 15.7113 16.5836 15.0645L19.1087 12.1257C18.8995 12.0211 18.6569 11.9426 18.3811 11.8903C18.1053 11.838 17.8794 11.8094 17.7035 11.8047C17.5275 11.7999 17.2588 11.8023 16.8974 11.8118C16.536 11.8213 16.303 11.8261 16.1984 11.8261C15.3234 11.8261 14.572 12.1399 13.9443 12.7677L11.6902 15.0217H9.47895V22.7826C9.52651 22.7826 9.62637 22.7802 9.77855 22.7755C9.93072 22.7707 10.0353 22.7707 10.0924 22.7755C10.1495 22.7802 10.2422 22.7897 10.3706 22.804C10.499 22.8183 10.5965 22.8397 10.6631 22.8682C10.7296 22.8967 10.8129 22.9372 10.9127 22.9895C11.0126 23.0418 11.1006 23.106 11.1766 23.1821L15.4137 27.3478C16.5075 28.4035 17.587 28.9314 18.6522 28.9314C19.394 28.9314 19.9885 28.7079 20.4355 28.2609C20.9776 28.4511 21.5126 28.413 22.0404 28.1467C22.5683 27.8804 22.9131 27.4762 23.0747 26.9341C23.7785 26.9912 24.3825 26.7819 24.8866 26.3064C25.0768 26.1352 25.248 25.9188 25.4001 25.6573C25.5523 25.3957 25.6189 25.1556 25.5999 24.9368C25.695 25.0319 25.8995 25.0795 26.2133 25.0795C26.6223 25.0795 26.9885 24.9796 27.3118 24.7799C27.6352 24.5802 27.8706 24.3281 28.018 24.0238C28.1654 23.7194 28.2225 23.3794 28.1892 23.0037C28.1559 22.6281 28.0109 22.2785 27.7541 21.9552ZM30.0224 22.7826H31.392V15.4783H30.0652L27.8254 12.9103C27.1977 12.1875 26.394 11.8261 25.4144 11.8261H23.0319C22.1855 11.8261 21.4912 12.1447 20.9491 12.7819L17.9674 16.2486C17.7011 16.5625 17.5679 16.9192 17.5679 17.3186C17.5679 17.7181 17.6963 18.0747 17.9531 18.3886C18.3621 18.8736 18.8852 19.1209 19.5224 19.1304C20.1597 19.1399 20.6875 18.9069 21.106 18.4314L23.8594 15.3213C24.0972 15.1026 24.3516 15.0003 24.6226 15.0146C24.8937 15.0289 25.1172 15.1573 25.2932 15.3998C25.4691 15.6423 25.5095 15.911 25.4144 16.2058C25.5666 16.3865 25.8329 16.6861 26.2133 17.1046C26.5938 17.5231 26.8791 17.8465 27.0693 18.0747C27.3451 18.4171 27.7374 18.9188 28.2463 19.5798C28.7551 20.2408 29.0618 20.6427 29.1665 20.7853C29.661 21.413 29.9463 22.0788 30.0224 22.7826ZM34.1311 22.7826C34.5116 22.7826 34.7779 22.6304 34.93 22.3261C35.0822 22.0217 35.0822 21.7174 34.93 21.413C34.7779 21.1087 34.5116 20.9565 34.1311 20.9565C33.7507 20.9565 33.4844 21.1087 33.3322 21.413C33.18 21.7174 33.18 22.0217 33.3322 22.3261C33.4844 22.6304 33.7507 22.7826 34.1311 22.7826ZM36.8703 14.5652V23.6957C36.8703 23.9429 36.7799 24.1569 36.5992 24.3376C36.4185 24.5183 36.2045 24.6087 35.9572 24.6087H29.7656C29.5088 25.2269 29.1189 25.7334 28.5958 26.1281C28.0727 26.5228 27.4783 26.7677 26.8125 26.8628C26.4987 27.3193 26.1158 27.7069 25.6641 28.0255C25.2123 28.3441 24.7249 28.5605 24.2018 28.6746C23.8023 29.1787 23.3054 29.5662 22.711 29.8373C22.1165 30.1084 21.5054 30.2249 20.8777 30.1868C20.3071 30.5102 19.7079 30.698 19.0802 30.7503C18.4525 30.8027 17.8461 30.7361 17.2612 30.5506C16.6763 30.3652 16.1199 30.1107 15.5921 29.7874C15.0642 29.464 14.572 29.0788 14.1155 28.6318L10.0211 24.6087H4.91374C4.66646 24.6087 4.45246 24.5183 4.27175 24.3376C4.09105 24.1569 4.00069 23.9429 4.00069 23.6957V14.1087C4.00069 13.8614 4.09105 13.6474 4.27175 13.4667C4.45246 13.286 4.66646 13.1957 4.91374 13.1957H10.9199C11.053 13.0625 11.2765 12.8342 11.5904 12.5109C11.9042 12.1875 12.1301 11.9592 12.268 11.8261C12.4059 11.6929 12.6152 11.5027 12.8957 11.2554C13.1763 11.0082 13.4165 10.8298 13.6162 10.7204C13.8159 10.6111 14.0584 10.4898 14.3438 10.3567C14.6291 10.2235 14.9239 10.1308 15.2283 10.0785C15.5326 10.0262 15.856 10 16.1984 10H17.8675C18.8091 10 19.6699 10.2663 20.4497 10.7989C21.2296 10.2663 22.0904 10 23.0319 10H25.4144C25.7473 10 26.0659 10.0285 26.3703 10.0856C26.6746 10.1427 26.9433 10.2116 27.1763 10.2925C27.4093 10.3733 27.6542 10.4993 27.911 10.6705C28.1678 10.8417 28.3794 10.9891 28.5459 11.1128C28.7123 11.2364 28.9168 11.4243 29.1593 11.6763C29.4018 11.9283 29.5873 12.1281 29.7157 12.2755C29.8441 12.4229 30.0391 12.6512 30.3006 12.9603C30.5622 13.2694 30.7595 13.5 30.8927 13.6522H35.9572C36.2045 13.6522 36.4185 13.7425 36.5992 13.9232C36.7799 14.1039 36.8703 14.3179 36.8703 14.5652Z" fill="white"/>
  </g>
  <defs>
    <clipPath id="clip0_706_1361">
      <rect width="32.8708" height="21" fill="white" transform="translate(4 10)"/>
    </clipPath>
  </defs>
</svg>
