<svg width="40" height="40" viewBox="0 0 40 40" fill="none" xmlns="http://www.w3.org/2000/svg">
<rect width="40" height="40" rx="10" fill="#132F63"/>
<path d="M32.2621 18.664L28.0221 14.7271V9.78767H24.5184V11.4734L19.7007 7L7.1398 18.664C6.96286 18.8287 6.95235 19.1059 7.11702 19.2833C7.28126 19.4602 7.55849 19.4703 7.73631 19.306L9.6279 17.5493V18.985V33H16.6354V22.4612C16.6354 21.9925 17.0151 21.6128 17.4837 21.6128H21.9186C22.3872 21.6128 22.7669 21.9925 22.7669 22.4612V33H29.7744V18.985V17.5493L31.666 19.306C31.7501 19.3844 31.8574 19.423 31.9643 19.423C32.0821 19.423 32.199 19.3761 32.2849 19.2833C32.4496 19.1059 32.439 18.8287 32.2621 18.664Z" fill="white"/>
</svg>
