<svg width="40" height="40" viewBox="0 0 40 40" fill="none" xmlns="http://www.w3.org/2000/svg">
<rect width="40" height="40" rx="10" fill="#132F63"/>
<path d="M23.6139 6.59903C22.6921 5.58283 21.3764 5 20.0043 5C18.6322 5 17.3166 5.58283 16.3947 6.59903C15.4728 7.61523 15.0205 8.98123 15.1538 10.3468L16.4865 24.0058H23.5222L24.8549 10.3468C24.9882 8.98123 24.5357 7.61523 23.6139 6.59903Z" fill="white"/>
<path d="M29.5597 25.2684H24.8743H15.1333H10.4479C9.64823 25.2684 9 25.9167 9 26.7163V32.8439C9 33.6436 9.64828 34.2918 10.4479 34.2918H12.844C13.0966 34.7154 13.558 35 14.087 35H25.9205C26.4496 35 26.9109 34.7154 27.1636 34.2918H29.5597C30.3594 34.2918 31.0076 33.6435 31.0076 32.8439V26.7163C31.0076 25.9167 30.3594 25.2684 29.5597 25.2684Z" fill="white"/>
</svg>
