<svg width="40" height="40" viewBox="0 0 40 40" fill="none" xmlns="http://www.w3.org/2000/svg">
<rect width="40" height="40" rx="10" fill="#132F63"/>
<path d="M31.045 12.3299V24.5461H5V28.8207H7.51877C7.43252 29.0547 7.38535 29.3075 7.38535 29.5711C7.38535 30.7711 8.36158 31.7473 9.56152 31.7473C10.7615 31.7473 11.7377 30.7711 11.7377 29.5711C11.7377 29.3075 11.6905 29.0547 11.6043 28.8207H26.2229C26.1367 29.0547 26.0895 29.3075 26.0895 29.5711C26.0895 30.7711 27.0658 31.7473 28.2657 31.7473C29.4657 31.7473 30.4419 30.7711 30.4419 29.5711C30.4419 29.3075 30.3948 29.0547 30.3085 28.8207H32.8273V14.1121H35V12.3299H31.045Z" fill="white"/>
<path d="M14.9248 16.773V18.8418H13.1425V16.773H10.0441V22.7638H18.0233V16.773H14.9248Z" fill="white"/>
<path d="M24.6864 16.773V18.8418H22.9042V16.773H19.8057V22.7638H27.7849V16.773H24.6864Z" fill="white"/>
<path d="M19.8046 9V11.0688H18.0223V9H14.9238V14.9908H18.0223H19.8046H22.9031V9H19.8046Z" fill="white"/>
</svg>
