<svg width="221" height="223" viewBox="0 0 221 223" fill="none" xmlns="http://www.w3.org/2000/svg">
<path d="M147.333 222.005C188.018 222.005 221 188.688 221 148.003V148.003L147.333 148.003L147.333 222.005V222.005Z" fill="#5C5FA8"/>
<rect width="73.6669" height="74.0016" transform="matrix(-1 -8.73153e-08 -8.75304e-08 1 221 74.0061)" fill="#44489A"/>
<path d="M147.333 0L147.333 74.0016L221 74.0016V74.0016C221 33.3165 188.018 8.91187e-06 147.333 0V0Z" fill="#31358B"/>
<path d="M147.333 0.00463867L147.333 74.0062V74.0062C106.648 74.0062 73.6661 40.6897 73.6662 0.00462254V0.00462254L147.333 0.00463867Z" fill="#1B1F7D"/>
<path d="M73.6669 0.00465481C32.9818 0.0046459 -7.26537e-06 33.3211 -1.61376e-05 74.0062V74.0062L73.6668 74.0062L73.6669 0.00465481V0.00465481Z" fill="#F85E56"/>
<rect width="73.6669" height="74.0016" transform="matrix(1 1.75135e-07 1.74558e-07 -1 0 147.994)" fill="#F77659"/>
<path d="M73.667 222.009L73.667 148.008L0.000149172 148.008V148.008C0.000143841 188.693 32.9819 222.009 73.667 222.009V222.009Z" fill="#FF957E"/>
<path d="M147.333 148.003V148.003C147.333 188.688 114.351 222.005 73.6661 222.005V222.005L73.6662 148.003L147.333 148.003Z" fill="#FFB392"/>
<path d="M73.667 74.0015L73.667 -9.90574e-05V-9.90574e-05C114.352 -9.37185e-05 147.334 33.3164 147.334 74.0015V74.0015L73.667 74.0015Z" fill="#F6554D"/>
<path d="M73.666 222V222C73.666 181.315 106.648 147.998 147.333 147.998V147.998L147.333 222L73.666 222Z" fill="#5C5FA8"/>
</svg>
