<svg id="e7HJryjsq1t1" xmlns="http://www.w3.org/2000/svg" xmlns:xlink="http://www.w3.org/1999/xlink" viewBox="0 0 223 224" shape-rendering="geometricPrecision" text-rendering="geometricPrecision">
<style><![CDATA[
#e7HJryjsq1t2 {animation: e7HJryjsq1t2_c_o 1500ms linear infinite normal forwards}@keyframes e7HJryjsq1t2_c_o { 0% {opacity: 1} 5% {opacity: 0} 55% {opacity: 1} 100% {opacity: 1}} #e7HJryjsq1t4 {animation: e7HJryjsq1t4_c_o 1500ms linear infinite normal forwards}@keyframes e7HJryjsq1t4_c_o { 0% {opacity: 1} 45% {opacity: 1} 50% {opacity: 0} 100% {opacity: 1}} #e7HJryjsq1t6 {animation: e7HJryjsq1t6_c_o 1500ms linear infinite normal forwards}@keyframes e7HJryjsq1t6_c_o { 0% {opacity: 1} 40% {opacity: 1} 45% {opacity: 0} 95% {opacity: 1} 100% {opacity: 1}} #e7HJryjsq1t8 {animation: e7HJryjsq1t8_c_o 1500ms linear infinite normal forwards}@keyframes e7HJryjsq1t8_c_o { 0% {opacity: 1} 35% {opacity: 1} 40% {opacity: 0} 90% {opacity: 1} 100% {opacity: 1}} #e7HJryjsq1t10 {animation: e7HJryjsq1t10_c_o 1500ms linear infinite normal forwards}@keyframes e7HJryjsq1t10_c_o { 0% {opacity: 1} 30% {opacity: 1} 35% {opacity: 0} 85% {opacity: 1} 100% {opacity: 1}} #e7HJryjsq1t12 {animation: e7HJryjsq1t12_c_o 1500ms linear infinite normal forwards}@keyframes e7HJryjsq1t12_c_o { 0% {opacity: 1} 25% {opacity: 1} 30% {opacity: 0} 80% {opacity: 1} 100% {opacity: 1}} #e7HJryjsq1t14 {animation: e7HJryjsq1t14_c_o 1500ms linear infinite normal forwards}@keyframes e7HJryjsq1t14_c_o { 0% {opacity: 1} 20% {opacity: 1} 25% {opacity: 0} 75% {opacity: 1} 100% {opacity: 1}} #e7HJryjsq1t16 {animation: e7HJryjsq1t16_c_o 1500ms linear infinite normal forwards}@keyframes e7HJryjsq1t16_c_o { 0% {opacity: 1} 15% {opacity: 1} 20% {opacity: 0} 70% {opacity: 1} 100% {opacity: 1}} #e7HJryjsq1t18 {animation: e7HJryjsq1t18_c_o 1500ms linear infinite normal forwards}@keyframes e7HJryjsq1t18_c_o { 0% {opacity: 1} 10% {opacity: 1} 15% {opacity: 0} 65% {opacity: 1} 100% {opacity: 1}} #e7HJryjsq1t20 {animation: e7HJryjsq1t20_c_o 1500ms linear infinite normal forwards}@keyframes e7HJryjsq1t20_c_o { 0% {opacity: 1} 5% {opacity: 1} 10% {opacity: 0} 60% {opacity: 1} 100% {opacity: 1}}
]]></style>
<path id="e7HJryjsq1t2" d="M148.333,1.00464v74.00156v0c-40.685,0-73.6667-33.3165-73.6667-74.00158v0l73.6667.00002Z" fill="#1b1f7d"/><path id="e7HJryjsq1t4" d="M74.6669,75.0016v-74.001608v0C115.352,0.999998,148.334,34.3165,148.334,75.0016v0h-73.6671Z" fill="#f6554d"/><path id="e7HJryjsq1t6" d="M74.6669,1.00462c-40.6851,0-73.666907,33.31648-73.666916,74.00158v0h73.666816l.0001-74.00158v0Z" fill="#f85e56"/><rect id="e7HJryjsq1t8" width="73.6669" height="74.0016" rx="0" ry="0" transform="matrix(1 0 0-1 1.00003 148.994003)" fill="#f77659"/><path id="e7HJryjsq1t10" d="M74.6669,223.009v-74.001h-73.66687v0c-.00001,40.685,32.98177,74.001,73.66687,74.001v0Z" fill="#ff957e"/><path id="e7HJryjsq1t12" d="M148.333,149.003v0c0,40.685-32.981,74.002-73.6665,74.002v0-74.002h73.6665Z" fill="#ffb392"/><path id="e7HJryjsq1t14" d="M74.6663,223v0c0-40.685,32.9817-74.002,73.6667-74.002v0v74.002h-73.6667Z" fill="#5c5fa8"/><path id="e7HJryjsq1t16" d="M148.333,223.005c40.685,0,73.667-33.317,73.667-74.002v0h-73.667v74.002v0Z" fill="#5c5fa8"/><rect id="e7HJryjsq1t18" width="73.6669" height="74.0016" rx="0" ry="0" transform="matrix(-1 0 0 1 222 75.006203)" fill="#44489a"/><path id="e7HJryjsq1t20" d="M148.333,1v74.0016h73.667v0C222,34.3165,189.018,1.00001,148.333,1v0Z" fill="#31358b"/></svg>
