<svg width="40" height="40" viewBox="0 0 40 40" fill="none" xmlns="http://www.w3.org/2000/svg">
<rect width="40" height="40" rx="10" fill="#132F63"/>
<path d="M9.90283 8C8.84998 8 8 8.84998 8 9.90283V30.0972C8 31.15 8.84998 32 9.90283 32H30.0972C31.15 32 32 31.15 32 30.0972V9.90283C32 8.84998 31.15 8 30.0972 8H9.90283ZM24.9069 12.9312H27.7571C28.3205 12.9312 28.7773 13.388 28.7773 13.9514V25.7571C28.7773 26.3205 28.3205 26.7773 27.7571 26.7773H24.9069C24.3434 26.7773 23.8866 26.3205 23.8866 25.7571V13.9514C23.8866 13.388 24.3434 12.9312 24.9069 12.9312ZM18.5749 17.6437H21.4251C21.9886 17.6437 22.4453 18.1005 22.4453 18.664V25.7571C22.4453 26.3205 21.9886 26.7773 21.4251 26.7773H18.5749C18.0114 26.7773 17.5547 26.3205 17.5547 25.7571V18.664C17.5547 18.1005 18.0114 17.6437 18.5749 17.6437ZM12.2429 21.6194H15.0931C15.6566 21.6194 16.1134 22.0762 16.1134 22.6397V25.7571C16.1134 26.3205 15.6566 26.7773 15.0931 26.7773H12.2429C11.6795 26.7773 11.2227 26.3205 11.2227 25.7571V22.6397C11.2227 22.0762 11.6795 21.6194 12.2429 21.6194ZM11.5304 28.081H28.4696C28.6385 28.081 28.7773 28.2117 28.7773 28.3806V28.8664C28.7773 29.0353 28.6385 29.1741 28.4696 29.1741H11.5304C11.3615 29.1741 11.2227 29.0353 11.2227 28.8664V28.3806C11.2227 28.2117 11.3615 28.081 11.5304 28.081Z" fill="white"/>
</svg>
