<svg width="40" height="40" viewBox="0 0 40 40" fill="none" xmlns="http://www.w3.org/2000/svg">
  <rect width="40" height="40" rx="10" fill="#132F63"/>
  <path d="M22.73 35H17.27C16.9279 35.0001 16.5961 34.8832 16.3295 34.6687C16.0629 34.4543 15.8777 34.1552 15.8045 33.821L15.194 30.995C14.3796 30.6382 13.6073 30.1919 12.8915 29.6645L10.136 30.542C9.80984 30.646 9.45792 30.6353 9.13868 30.5117C8.81943 30.3881 8.55207 30.159 8.381 29.8625L5.645 25.136C5.47572 24.8392 5.41217 24.4937 5.46476 24.1561C5.51735 23.8185 5.68296 23.5087 5.9345 23.2775L8.072 21.3275C7.97479 20.4442 7.97479 19.5528 8.072 18.6695L5.9345 16.724C5.68261 16.4927 5.51677 16.1826 5.46417 15.8447C5.41157 15.5067 5.47533 15.161 5.645 14.864L8.375 10.1345C8.54607 9.83797 8.81343 9.60889 9.13268 9.48528C9.45192 9.36168 9.80384 9.35099 10.13 9.455L12.8855 10.3325C13.2515 10.0625 13.6325 9.8105 14.0255 9.5825C14.405 9.3695 14.795 9.176 15.194 9.0035L15.806 6.1805C15.8789 5.8463 16.0637 5.54703 16.33 5.33232C16.5963 5.11761 16.9279 5.00036 17.27 5H22.73C23.0721 5.00036 23.4037 5.11761 23.67 5.33232C23.9362 5.54703 24.1211 5.8463 24.194 6.1805L24.812 9.005C25.6254 9.3639 26.3974 9.81001 27.1145 10.3355L29.8715 9.458C30.1975 9.35437 30.549 9.36526 30.868 9.48884C31.1869 9.61243 31.454 9.84129 31.625 10.1375L34.355 14.867C34.703 15.4775 34.583 16.25 34.0655 16.7255L31.928 18.6755C32.0252 19.5588 32.0252 20.4502 31.928 21.3335L34.0655 23.2835C34.583 23.7605 34.703 24.5315 34.355 25.142L31.625 29.8715C31.4539 30.168 31.1866 30.3971 30.8673 30.5207C30.5481 30.6443 30.1962 30.655 29.87 30.551L27.1145 29.6735C26.3992 30.2005 25.6274 30.6463 24.8135 31.0025L24.194 33.821C24.1208 34.1549 23.9358 34.4538 23.6696 34.6683C23.4033 34.8827 23.0718 34.9997 22.73 35V35ZM19.994 14C18.4027 14 16.8766 14.6321 15.7514 15.7574C14.6261 16.8826 13.994 18.4087 13.994 20C13.994 21.5913 14.6261 23.1174 15.7514 24.2426C16.8766 25.3679 18.4027 26 19.994 26C21.5853 26 23.1114 25.3679 24.2366 24.2426C25.3619 23.1174 25.994 21.5913 25.994 20C25.994 18.4087 25.3619 16.8826 24.2366 15.7574C23.1114 14.6321 21.5853 14 19.994 14V14Z" fill="white"/>
</svg>
