<svg width="40" height="40" viewBox="0 0 40 40" fill="none" xmlns="http://www.w3.org/2000/svg">
<rect width="40" height="40" rx="10" fill="#132F63"/>
<path d="M15.896 25.232C16.712 24.144 17.12 22.6 17.12 20.6C17.12 18.6 16.712 17.064 15.896 15.992C15.08 14.904 14.088 14.36 12.92 14.36C11.752 14.36 10.76 14.904 9.944 15.992C9.128 17.064 8.72 18.6 8.72 20.6C8.72 22.6 9.128 24.144 9.944 25.232C10.76 26.304 11.752 26.84 12.92 26.84C14.088 26.84 15.08 26.304 15.896 25.232ZM8.144 14.288C9.44 12.736 11.032 11.96 12.92 11.96C14.808 11.96 16.4 12.736 17.696 14.288C18.992 15.84 19.64 17.944 19.64 20.6C19.64 23.256 18.992 25.36 17.696 26.912C16.4 28.464 14.808 29.24 12.92 29.24C11.032 29.24 9.44 28.464 8.144 26.912C6.848 25.36 6.2 23.256 6.2 20.6C6.2 17.944 6.848 15.84 8.144 14.288ZM22.0438 29V26.84L28.9558 19.88C29.4198 19.416 29.7398 19.008 29.9158 18.656C30.1078 18.288 30.2038 17.816 30.2038 17.24C30.2038 16.328 29.9558 15.624 29.4598 15.128C28.9798 14.616 28.3078 14.36 27.4438 14.36C26.5958 14.36 25.8838 14.664 25.3078 15.272C24.7318 15.88 24.4438 16.656 24.4438 17.6H21.9238C21.9238 15.92 22.4358 14.56 23.4598 13.52C24.4838 12.48 25.8118 11.96 27.4438 11.96C29.0758 11.96 30.3798 12.448 31.3558 13.424C32.3478 14.384 32.8438 15.656 32.8438 17.24C32.8438 18.152 32.6358 18.944 32.2198 19.616C31.8198 20.288 31.2278 21.016 30.4438 21.8L25.7638 26.48V26.6H33.0838V29H22.0438Z" fill="white"/>
</svg>
