<svg width="40" height="40" viewBox="0 0 40 40" fill="none" xmlns="http://www.w3.org/2000/svg">
<rect width="40" height="40" rx="10" fill="#132F63"/>
<path d="M15.31 21.096C15.31 19.6747 15.1453 18.522 14.816 17.638C14.4867 16.754 14.0447 16.104 13.49 15.688C12.9527 15.272 12.3373 15.064 11.644 15.064C10.968 15.064 10.3527 15.2807 9.798 15.714C9.24333 16.13 8.80133 16.7887 8.472 17.69C8.16 18.574 8.004 19.7093 8.004 21.096C8.004 23.0547 8.32467 24.554 8.966 25.594C9.60733 26.634 10.5 27.154 11.644 27.154C12.8053 27.154 13.7067 26.634 14.348 25.594C14.9893 24.554 15.31 23.0547 15.31 21.096ZM11.644 29.364C10.396 29.364 9.28667 29.0607 8.316 28.454C7.36267 27.8473 6.61733 26.9373 6.08 25.724C5.54267 24.4933 5.274 22.9507 5.274 21.096C5.274 19.1547 5.56867 17.586 6.158 16.39C6.74733 15.1767 7.52733 14.284 8.498 13.712C9.46867 13.14 10.5173 12.854 11.644 12.854C12.788 12.854 13.8453 13.1487 14.816 13.738C15.7867 14.31 16.5667 15.2027 17.156 16.416C17.7453 17.612 18.04 19.172 18.04 21.096C18.04 22.9333 17.7627 24.4673 17.208 25.698C16.6707 26.9113 15.9253 27.83 14.972 28.454C14.0187 29.0607 12.9093 29.364 11.644 29.364ZM20.3995 22.734L27.5755 13.218C27.7662 13.166 27.9915 13.1227 28.2515 13.088C28.5115 13.0533 28.7455 13.036 28.9535 13.036C29.2655 13.036 29.5602 13.0793 29.8375 13.166C30.1148 13.2527 30.3402 13.4087 30.5135 13.634C30.7042 13.842 30.7995 14.1627 30.7995 14.596V23.15H33.2695C33.3215 23.254 33.3822 23.4013 33.4515 23.592C33.5208 23.7827 33.5555 23.9907 33.5555 24.216C33.5555 24.58 33.4602 24.8573 33.2695 25.048C33.0962 25.2387 32.8622 25.334 32.5675 25.334H30.7995V29.026C30.6955 29.0433 30.5308 29.078 30.3055 29.13C30.0802 29.182 29.8548 29.208 29.6295 29.208C29.1615 29.208 28.8062 29.13 28.5635 28.974C28.3208 28.8007 28.1995 28.4973 28.1995 28.064V25.334H21.0235C20.7982 25.2127 20.5988 25.022 20.4255 24.762C20.2522 24.4847 20.1655 24.1727 20.1655 23.826C20.1655 23.618 20.1828 23.4273 20.2175 23.254C20.2695 23.0633 20.3302 22.89 20.3995 22.734ZM28.2775 23.15L28.3035 15.766H28.2515L23.1295 23.15H28.2775Z" fill="white"/>
</svg>
