<svg width="40" height="40" viewBox="0 0 40 40" fill="none" xmlns="http://www.w3.org/2000/svg">
<rect width="40" height="40" rx="10" fill="#132F63"/>
<path d="M15.896 25.232C16.712 24.144 17.12 22.6 17.12 20.6C17.12 18.6 16.712 17.064 15.896 15.992C15.08 14.904 14.088 14.36 12.92 14.36C11.752 14.36 10.76 14.904 9.944 15.992C9.128 17.064 8.72 18.6 8.72 20.6C8.72 22.6 9.128 24.144 9.944 25.232C10.76 26.304 11.752 26.84 12.92 26.84C14.088 26.84 15.08 26.304 15.896 25.232ZM8.144 14.288C9.44 12.736 11.032 11.96 12.92 11.96C14.808 11.96 16.4 12.736 17.696 14.288C18.992 15.84 19.64 17.944 19.64 20.6C19.64 23.256 18.992 25.36 17.696 26.912C16.4 28.464 14.808 29.24 12.92 29.24C11.032 29.24 9.44 28.464 8.144 26.912C6.848 25.36 6.2 23.256 6.2 20.6C6.2 17.944 6.848 15.84 8.144 14.288ZM21.6838 24.2H24.2038C24.2038 24.888 24.5078 25.504 25.1158 26.048C25.7398 26.576 26.5158 26.84 27.4438 26.84C28.4358 26.84 29.2038 26.6 29.7478 26.12C30.2918 25.64 30.5638 25 30.5638 24.2C30.5638 23.448 30.2678 22.824 29.6758 22.328C29.0998 21.816 28.3158 21.56 27.3238 21.56H26.2438V19.28H27.3238C28.2518 19.28 28.9798 19.048 29.5078 18.584C30.0518 18.104 30.3238 17.496 30.3238 16.76C30.3238 16.072 30.0598 15.504 29.5318 15.056C29.0198 14.592 28.3238 14.36 27.4438 14.36C26.5478 14.36 25.8198 14.592 25.2598 15.056C24.7158 15.504 24.4438 16.072 24.4438 16.76H21.9238C21.9238 15.416 22.4278 14.28 23.4358 13.352C24.4598 12.424 25.7958 11.96 27.4438 11.96C29.0438 11.96 30.3398 12.424 31.3318 13.352C32.3398 14.28 32.8438 15.416 32.8438 16.76C32.8438 17.848 32.4438 18.776 31.6438 19.544C31.2918 19.88 30.8918 20.152 30.4438 20.36V20.48C30.9398 20.704 31.3798 20.984 31.7638 21.32C32.6438 22.136 33.0838 23.136 33.0838 24.32C33.0838 25.728 32.5558 26.904 31.4998 27.848C30.4598 28.776 29.1078 29.24 27.4438 29.24C25.7318 29.24 24.3398 28.76 23.2678 27.8C22.2118 26.824 21.6838 25.624 21.6838 24.2Z" fill="white"/>
</svg>
