<svg width="40" height="40" viewBox="0 0 40 40" fill="none" xmlns="http://www.w3.org/2000/svg">
<rect width="40" height="40" rx="10" fill="#132F63"/>
<path d="M17.896 25.232C18.712 24.144 19.12 22.6 19.12 20.6C19.12 18.6 18.712 17.064 17.896 15.992C17.08 14.904 16.088 14.36 14.92 14.36C13.752 14.36 12.76 14.904 11.944 15.992C11.128 17.064 10.72 18.6 10.72 20.6C10.72 22.6 11.128 24.144 11.944 25.232C12.76 26.304 13.752 26.84 14.92 26.84C16.088 26.84 17.08 26.304 17.896 25.232ZM10.144 14.288C11.44 12.736 13.032 11.96 14.92 11.96C16.808 11.96 18.4 12.736 19.696 14.288C20.992 15.84 21.64 17.944 21.64 20.6C21.64 23.256 20.992 25.36 19.696 26.912C18.4 28.464 16.808 29.24 14.92 29.24C13.032 29.24 11.44 28.464 10.144 26.912C8.848 25.36 8.2 23.256 8.2 20.6C8.2 17.944 8.848 15.84 10.144 14.288ZM26.9238 29V16.4H23.4438V14H26.2038C26.6838 14 26.9238 13.76 26.9238 13.28V12.2H29.4438V29H26.9238Z" fill="white"/>
</svg>
