<svg width="40" height="40" viewBox="0 0 40 40" fill="none" xmlns="http://www.w3.org/2000/svg">
  <rect width="40" height="40" rx="10" fill="#132F63"/>
  <g clip-path="url(#clip0_706_1361)">
    <path d="M31.9027 8.68291C31.1051 7.8853 29.813 7.8853 29.0154 8.68291L8.59661 29.1017C7.799 29.8993 7.799 31.1914 8.59661 31.989C8.99733 32.3884 9.51928 32.5862 10.0419 32.5862C10.5645 32.5862 11.0871 32.3868 11.4852 31.988L31.904 11.5693C32.7003 10.7701 32.7003 9.48051 31.9027 8.68291ZM12.0838 16.2512C14.3362 16.2512 16.1675 14.4187 16.1675 12.1675C16.1675 9.91633 14.3362 8.08438 12.0838 8.08438C9.83131 8.08438 8 9.91696 8 12.1675C8 14.418 9.83131 16.2512 12.0838 16.2512ZM28.4188 24.4187C26.1663 24.4187 24.335 26.2513 24.335 28.5025C24.335 30.7537 26.1663 32.5862 28.4188 32.5862C30.6712 32.5862 32.5025 30.7537 32.5025 28.5025C32.5025 26.2513 30.6712 24.4187 28.4188 24.4187Z" fill="white"/>
  </g>
  <defs>
    <clipPath id="clip0_706_1361">
      <rect width="24.5025" height="32.67" fill="white" transform="translate(8 4)"/>
    </clipPath>
  </defs>
</svg>
