<svg width="14" height="14" viewBox="0 0 14 14" fill="none" xmlns="http://www.w3.org/2000/svg">
<path fill-rule="evenodd" clip-rule="evenodd" d="M3.85005 2.33333C3.01355 2.33333 2.33338 3.0135 2.33338 3.85C2.33338 8.15967 5.8398 11.6667 10.1501 11.6667C10.986 11.6667 11.6667 10.9865 11.6667 10.15C11.6667 10.0853 11.6626 10.0217 11.6545 9.95867L8.95947 9.34034C8.9058 9.443 8.84689 9.55442 8.79322 9.65825C8.52722 10.1658 8.33472 10.5344 7.84355 10.3367C5.91505 9.66 4.34063 8.085 3.65522 6.13317C3.44697 5.67525 3.84363 5.46758 4.34647 5.20508C4.44855 5.15142 4.5588 5.09367 4.65972 5.04117L4.04138 2.34558C3.97663 2.33742 3.91363 2.33333 3.85005 2.33333M10.1501 12.8333C5.19638 12.8333 1.16672 8.80367 1.16672 3.85C1.16672 2.37008 2.37013 1.16667 3.85005 1.16667C4.00172 1.16667 4.15163 1.1795 4.29688 1.20458C4.43863 1.22733 4.58097 1.2635 4.7198 1.31133C4.90938 1.37725 5.0523 1.5365 5.09722 1.7325L5.8958 5.2115C5.94013 5.40283 5.88472 5.6035 5.74822 5.74583C5.66888 5.82867 5.66713 5.83042 4.9438 6.209C5.52947 7.47717 6.54738 8.49158 7.78988 9.05742C8.16905 8.3335 8.17138 8.33117 8.25422 8.25183C8.39655 8.11533 8.59838 8.06225 8.78855 8.10425L12.2681 8.90283C12.4636 8.94775 12.6228 9.09008 12.6881 9.27967C12.736 9.41733 12.7721 9.55967 12.7961 9.70608C12.8206 9.85017 12.8334 9.9995 12.8334 10.15C12.8334 11.6299 11.6294 12.8333 10.1501 12.8333" fill="black"/>
<mask id="mask0_2_3" style="mask-type:alpha" maskUnits="userSpaceOnUse" x="1" y="1" width="12" height="12">
<path fill-rule="evenodd" clip-rule="evenodd" d="M3.85005 2.33333C3.01355 2.33333 2.33338 3.0135 2.33338 3.85C2.33338 8.15967 5.8398 11.6667 10.1501 11.6667C10.986 11.6667 11.6667 10.9865 11.6667 10.15C11.6667 10.0853 11.6626 10.0217 11.6545 9.95867L8.95947 9.34034C8.9058 9.443 8.84689 9.55442 8.79322 9.65825C8.52722 10.1658 8.33472 10.5344 7.84355 10.3367C5.91505 9.66 4.34063 8.085 3.65522 6.13317C3.44697 5.67525 3.84363 5.46758 4.34647 5.20508C4.44855 5.15142 4.5588 5.09367 4.65972 5.04117L4.04138 2.34558C3.97663 2.33742 3.91363 2.33333 3.85005 2.33333M10.1501 12.8333C5.19638 12.8333 1.16672 8.80367 1.16672 3.85C1.16672 2.37008 2.37013 1.16667 3.85005 1.16667C4.00172 1.16667 4.15163 1.1795 4.29688 1.20458C4.43863 1.22733 4.58097 1.2635 4.7198 1.31133C4.90938 1.37725 5.0523 1.5365 5.09722 1.7325L5.8958 5.2115C5.94013 5.40283 5.88472 5.6035 5.74822 5.74583C5.66888 5.82867 5.66713 5.83042 4.9438 6.209C5.52947 7.47717 6.54738 8.49158 7.78988 9.05742C8.16905 8.3335 8.17138 8.33117 8.25422 8.25183C8.39655 8.11533 8.59838 8.06225 8.78855 8.10425L12.2681 8.90283C12.4636 8.94775 12.6228 9.09008 12.6881 9.27967C12.736 9.41733 12.7721 9.55967 12.7961 9.70608C12.8206 9.85017 12.8334 9.9995 12.8334 10.15C12.8334 11.6299 11.6294 12.8333 10.1501 12.8333" fill="white"/>
</mask>
<g mask="url(#mask0_2_3)">
</g>
</svg>
