<svg width="16" height="20" viewBox="0 0 16 20" fill="none" xmlns="http://www.w3.org/2000/svg">
<path d="M10.0741 6.06035H15.4793L10.0741 0.532471V6.06035Z" fill="#132F63"/>
<path d="M16 7.87861H9.18519C8.69428 7.87861 8.2963 7.47158 8.2963 6.96952V0H0.888889C0.397985 0 0 0.40703 0 0.909091V10.303H16V7.87861Z" fill="#132F63"/>
<path d="M8.19641 16.2204V15.1753C8.19641 14.9397 8.11073 14.895 7.95268 14.895H7.71588V16.5039H7.95268C8.10705 16.5039 8.19641 16.4575 8.19641 16.2204Z" fill="#132F63"/>
<path d="M0.888889 19.9999H15.1111C15.602 19.9999 16 19.5929 16 19.0908V12.1211H0V19.0908C0 19.5929 0.397985 19.9999 0.888889 19.9999ZM9.496 14.5288C9.496 14.3416 9.64124 14.2004 9.83395 14.2004H11.0239C11.2039 14.2004 11.3449 14.3507 11.3449 14.5425C11.3449 14.7402 11.2039 14.8949 11.0239 14.8949H10.1919V15.3556H10.486C10.6641 15.3556 10.8036 15.5073 10.8036 15.7011C10.8036 15.8922 10.667 16.0363 10.486 16.0363H10.1919V16.8699C10.1919 17.0572 10.0423 17.1983 9.84391 17.1983C9.64551 17.1983 9.496 17.0572 9.496 16.8699V14.5288ZM7.01997 14.5253C7.01997 14.3431 7.16835 14.2004 7.35781 14.2004H7.95271C8.5411 14.2004 8.89244 14.5649 8.89244 15.1752V16.2202C8.89244 16.8326 8.5411 17.1983 7.95271 17.1983H7.35781C7.17144 17.1983 7.01997 17.051 7.01997 16.8699V14.5253ZM4.65505 14.5253C4.65505 14.3512 4.79141 14.2116 4.97233 14.2008C4.97695 14.2005 4.98157 14.2004 4.98619 14.2004H5.60462C6.18661 14.2004 6.53416 14.5634 6.53416 15.1715V15.2059C6.53416 15.8161 6.18418 16.1805 5.59804 16.1805H5.35093V16.8664C5.35093 17.0524 5.19804 17.1982 5.0029 17.1982C4.80788 17.1982 4.65511 17.0525 4.65511 16.8664V14.5253H4.65505Z" fill="#132F63"/>
<path d="M5.83821 15.2164V15.1753C5.83821 14.9397 5.7537 14.895 5.59791 14.895H5.3508V15.4999H5.59791C5.75376 15.4999 5.83821 15.4548 5.83821 15.2164Z" fill="#132F63"/>
</svg>
