<svg width="40" height="40" viewBox="0 0 40 40" fill="none" xmlns="http://www.w3.org/2000/svg">
<rect width="40" height="40" rx="10" fill="#132F63"/>
<path d="M29.25 8H10.755C10.555 8.00068 10.3633 8.08044 10.2219 8.22188C10.0804 8.36333 10.0007 8.55497 10 8.75501V31.25C10.0009 31.4495 10.0809 31.6405 10.2224 31.7811C10.364 31.9217 10.5555 32.0004 10.755 32H29.25C29.3485 32.0001 29.4461 31.9808 29.5372 31.9432C29.6282 31.9055 29.711 31.8503 29.7806 31.7806C29.8503 31.711 29.9055 31.6282 29.9432 31.5372C29.9808 31.4461 30.0001 31.3485 30 31.25V8.75501C30.0005 8.55549 29.9218 8.36393 29.7812 8.22238C29.6405 8.08083 29.4495 8.00085 29.25 8V8ZM19 28.02H14C13.8011 28.02 13.6103 27.9409 13.4697 27.8003C13.329 27.6596 13.25 27.4689 13.25 27.27C13.25 27.071 13.329 26.8803 13.4697 26.7396C13.6103 26.599 13.8011 26.52 14 26.52H19C19.9846 26.5353 19.9872 28.0042 19 28.02ZM19 22.52H14C13.8011 22.52 13.6103 22.4409 13.4697 22.3003C13.329 22.1596 13.25 21.9689 13.25 21.77C13.25 21.571 13.329 21.3803 13.4697 21.2396C13.6103 21.099 13.8011 21.02 14 21.02H19C19.9846 21.0353 19.9872 22.5042 19 22.52ZM21.02 16.5C21.0054 17.4849 19.5353 17.4867 19.52 16.4999V12.615C19.521 11.9884 19.7706 11.3878 20.214 10.9451C20.6574 10.5023 21.2584 10.2537 21.885 10.2537C22.5116 10.2537 23.1126 10.5023 23.556 10.9451C23.9994 11.3878 24.249 11.9884 24.25 12.615V16.5C24.2339 17.4855 22.7661 17.4866 22.75 16.4999V15.4449H21.02V16.5ZM26.53 26.5699L24.0701 29.0299C24.0013 29.1007 23.9188 29.1568 23.8277 29.1946C23.7366 29.2324 23.6387 29.2513 23.54 29.25C23.4415 29.2503 23.3439 29.2311 23.2529 29.1933C23.1619 29.1555 23.0793 29.1 23.01 29.0299L21.97 27.9899C21.2889 27.2844 22.3244 26.2393 23.03 26.9299L23.54 27.4399L25.47 25.51C26.1831 24.8286 27.2178 25.8662 26.53 26.5699H26.53ZM26.53 21.0699L24.0701 23.5299C24.0013 23.6007 23.9188 23.6568 23.8277 23.6946C23.7366 23.7324 23.6387 23.7513 23.54 23.75C23.4415 23.7503 23.3439 23.7311 23.2529 23.6933C23.1619 23.6555 23.0793 23.6 23.01 23.5299L21.97 22.4899C21.2889 21.7844 22.3244 20.7393 23.03 21.4299L23.54 21.9399L25.47 20.01C26.1831 19.3286 27.2178 20.3662 26.53 21.0699H26.53Z" fill="white"/>
<path d="M22.75 12.6149C22.7494 12.3859 22.658 12.1664 22.4959 12.0047C22.3337 11.843 22.114 11.7521 21.885 11.7521C21.656 11.7521 21.4363 11.843 21.2742 12.0047C21.112 12.1664 21.0206 12.3859 21.02 12.6149V13.9449H22.75V12.6149Z" fill="white"/>
</svg>
