<svg width="20" height="19" viewBox="0 0 20 19" fill="none" xmlns="http://www.w3.org/2000/svg">
<path d="M20 1.45365C20 0.653328 19.3467 0 18.5463 0H1.45365C0.653328 0 0 0.653328 0 1.45365V12.1805C0 12.1846 0 12.1927 0 12.1968V14.1405C0 14.1486 0 14.1568 0 14.165V14.2711C0 14.2793 0 14.2875 0 14.2956V14.3242C0.0244998 15.0102 0.587995 15.5533 1.27807 15.5533H7.76644C7.75419 15.8391 7.59494 17.1458 5.64312 17.3908H5.70437C5.39812 17.3908 5.14496 17.6399 5.14496 17.9502C5.14496 18.2605 5.39404 18.5096 5.70437 18.5096H14.2507C14.557 18.5096 14.8101 18.2605 14.8101 17.9502C14.8101 17.6399 14.561 17.3908 14.2507 17.3908H14.3446C12.3969 17.1458 12.2336 15.8391 12.2213 15.5533H18.7097C19.3998 15.5533 19.9632 15.0061 19.9877 14.3242V11.9273V1.45365H20ZM10 14.6468C9.608 14.6468 9.28951 14.3283 9.28951 13.9363C9.28951 13.5443 9.608 13.2258 10 13.2258C10.392 13.2258 10.7105 13.5443 10.7105 13.9363C10.7105 14.3283 10.392 14.6468 10 14.6468ZM17.2683 12.0131H2.73173V2.72356H17.2683V12.0131Z" fill="#828282"/>
</svg>
