<?xml version="1.0" standalone="no"?>
<!DOCTYPE svg PUBLIC "-//W3C//DTD SVG 20010904//EN"
 "http://www.w3.org/TR/2001/REC-SVG-20010904/DTD/svg10.dtd">
<svg version="1.0" xmlns="http://www.w3.org/2000/svg"
 width="892.000000pt" height="892.000000pt" viewBox="0 0 892.000000 892.000000"
 preserveAspectRatio="xMidYMid meet">
<metadata>
Created by potrace 1.14, written by Peter Selinger 2001-2017
</metadata>
<g transform="translate(0.000000,892.000000) scale(0.100000,-0.100000)"
fill="#000000" stroke="none">
<path d="M2789 8916 c-2 -2 -35 -6 -74 -10 -129 -12 -188 -20 -205 -26 -3 -1
-8 -2 -13 -1 -4 1 -28 -4 -55 -10 -26 -6 -58 -13 -72 -15 -46 -8 -184 -45
-264 -70 -69 -21 -107 -35 -231 -83 -11 -4 -51 -23 -90 -41 -38 -18 -71 -32
-73 -31 -3 2 -150 -78 -194 -106 -21 -12 -42 -23 -48 -23 -5 0 -10 -4 -10 -10
0 -5 -5 -10 -10 -10 -13 0 -172 -109 -265 -181 -142 -109 -280 -240 -406 -384
-24 -27 -52 -57 -61 -67 -10 -10 -18 -21 -18 -26 0 -4 -8 -15 -18 -24 -20 -19
-29 -31 -62 -78 -13 -19 -27 -37 -30 -40 -12 -11 -148 -229 -181 -290 -19 -36
-38 -68 -42 -71 -4 -3 -9 -16 -10 -27 -1 -12 -4 -22 -7 -22 -4 0 -19 -28 -34
-62 -15 -35 -32 -71 -37 -81 -25 -47 -126 -340 -144 -417 -2 -8 -11 -46 -20
-85 -9 -38 -18 -85 -21 -104 -3 -18 -8 -43 -10 -55 -3 -11 -7 -37 -10 -56 -2
-19 -7 -51 -10 -70 -3 -19 -8 -66 -12 -105 -10 -96 -9 -3412 1 -3505 4 -41 9
-93 11 -115 3 -22 5 -40 6 -40 2 0 3 -10 14 -91 3 -23 13 -71 22 -105 8 -35
17 -73 19 -84 5 -31 50 -181 79 -265 14 -41 27 -79 28 -85 2 -5 5 -12 8 -15 3
-3 11 -23 19 -45 37 -111 245 -502 273 -513 4 -2 8 -8 8 -13 0 -9 121 -180
145 -205 6 -6 27 -31 46 -54 94 -115 232 -254 371 -373 71 -60 254 -197 264
-197 4 0 21 -11 38 -23 75 -57 318 -185 456 -241 36 -15 73 -31 82 -36 10 -6
26 -10 36 -10 10 0 27 -7 38 -15 10 -8 30 -15 44 -15 15 0 30 -4 35 -9 16 -13
254 -74 375 -95 19 -4 59 -9 88 -13 28 -3 52 -9 52 -12 0 -3 19 -6 43 -7 89
-1 259 -12 263 -17 3 -3 19 -1 35 3 16 5 29 5 29 1 0 -9 37 -8 46 1 3 4 13 4
22 0 21 -8 65 -7 79 1 7 4 14 4 17 -1 5 -9 81 -6 98 4 7 4 8 3 4 -4 -5 -9 -1
-9 17 -3 13 5 30 5 37 1 8 -5 19 -5 26 1 8 7 14 6 19 -1 5 -8 10 -8 20 0 7 6
16 7 18 3 6 -10 81 -8 97 2 6 3 10 2 10 -3 0 -5 17 -6 40 -2 22 4 40 4 40 -1
0 -5 11 -4 25 1 13 5 26 6 29 2 5 -9 82 -6 98 4 7 4 8 3 4 -4 -5 -9 -1 -9 17
-3 13 5 30 5 37 1 8 -5 19 -5 26 1 8 7 14 6 19 -1 5 -8 10 -8 20 0 7 6 16 7
18 3 6 -10 81 -8 97 2 6 3 10 2 10 -3 0 -5 17 -6 40 -2 22 4 40 4 40 -1 0 -5
11 -4 25 1 13 5 26 6 29 2 5 -9 82 -6 98 4 7 4 8 3 4 -4 -5 -9 -1 -9 17 -3 13
5 30 5 37 1 8 -5 19 -5 26 1 8 7 14 6 19 -1 5 -8 10 -8 20 0 7 6 16 7 18 3 6
-10 81 -8 97 2 6 3 10 2 10 -3 0 -5 17 -6 40 -2 22 4 40 4 40 -1 0 -5 11 -4
25 1 13 5 26 6 29 2 5 -9 82 -6 98 4 7 4 8 3 4 -4 -5 -9 -1 -9 17 -3 13 5 30
5 37 1 8 -5 19 -5 26 1 8 7 14 6 19 -1 5 -8 10 -8 20 0 7 6 16 7 18 3 6 -10
81 -8 97 2 6 3 10 3 10 -2 0 -4 20 -8 44 -8 24 0 42 3 39 7 -2 5 7 4 21 -2 16
-6 26 -6 26 0 0 5 9 6 22 1 12 -4 37 -5 55 -1 18 5 33 4 33 -1 0 -5 11 -4 25
1 13 5 26 6 29 2 5 -9 82 -6 98 4 7 4 8 3 4 -4 -5 -9 -1 -9 17 -3 13 5 30 5
37 1 8 -5 19 -5 26 1 8 7 14 6 19 -1 5 -8 10 -8 20 0 7 6 16 7 18 3 6 -10 81
-8 97 2 6 3 10 2 10 -3 0 -5 17 -6 40 -2 22 4 40 4 40 -1 0 -5 11 -4 25 1 13
5 26 6 29 2 5 -9 82 -6 98 4 7 4 8 3 4 -4 -5 -9 -1 -9 17 -3 13 5 30 5 37 1 8
-5 19 -5 26 1 8 7 14 6 19 -1 3 -6 11 -8 16 -4 5 3 69 7 142 10 169 5 183 7
377 40 131 22 141 24 196 40 28 8 62 17 74 19 24 5 85 22 110 32 8 4 17 7 20
8 33 8 159 54 207 76 34 15 64 25 67 22 3 -4 6 -1 6 5 0 7 6 12 13 12 15 0
205 95 264 133 24 15 47 27 53 27 5 0 10 5 10 10 0 6 5 10 12 10 6 0 26 11 44
25 18 14 37 25 43 25 5 0 15 8 20 18 6 9 11 13 11 9 0 -4 6 -3 13 3 6 6 44 34
83 63 153 113 290 239 450 414 127 138 381 507 396 574 2 7 9 20 16 27 6 7 12
20 12 28 0 8 5 14 10 14 6 0 10 5 10 11 0 7 16 45 36 86 19 41 37 82 39 92 2
10 13 35 24 57 12 21 21 44 21 51 0 6 5 24 12 40 6 15 12 34 14 40 1 7 9 32
17 55 9 24 19 57 23 73 4 17 8 32 9 35 22 72 64 271 71 329 2 19 6 50 9 70 18
109 20 318 20 1851 0 1512 -2 1744 -20 1873 -3 20 -7 52 -9 70 -8 66 -58 292
-67 303 -5 6 -7 13 -4 16 7 7 -89 293 -126 375 -85 189 -105 228 -111 231 -5
2 -8 7 -8 12 0 31 -250 415 -300 460 -3 3 -21 25 -41 50 -128 158 -323 343
-509 481 -87 65 -244 169 -256 169 -4 0 -15 6 -23 14 -22 20 -231 126 -248
126 -7 0 -13 5 -13 10 0 6 -8 10 -18 10 -10 0 -22 4 -27 9 -11 10 -239 95
-285 106 -3 1 -31 9 -62 19 -32 9 -59 17 -60 16 -2 0 -25 6 -53 14 -52 15
-144 35 -192 41 -16 2 -28 4 -28 5 0 3 -29 7 -100 15 -38 5 -83 11 -100 13
-35 6 -3420 14 -3426 8z m400 -2960 c6 -4 11 -2 11 4 0 6 5 8 11 5 10 -7 83
-8 144 -2 17 1 42 -1 56 -4 15 -4 32 -3 39 1 7 4 26 4 41 0 17 -5 29 -5 29 0
0 6 10 6 23 1 12 -5 31 -5 42 -1 11 4 29 4 40 0 11 -4 29 -4 40 0 11 4 29 4
40 0 11 -4 29 -4 40 0 11 4 24 5 28 3 9 -5 88 -5 142 0 17 1 42 -1 58 -5 16
-4 27 -3 27 3 0 6 5 7 11 4 6 -4 34 -7 62 -6 56 1 74 1 110 1 12 0 36 1 52 3
17 1 42 -1 58 -5 16 -4 27 -3 27 3 0 6 5 7 11 4 6 -4 34 -6 62 -6 91 2 102 3
122 1 11 0 32 -1 48 -1 15 1 34 1 42 1 8 0 26 0 40 0 14 0 33 0 43 0 9 0 31 0
47 -1 17 0 36 0 43 0 6 0 28 0 47 0 19 0 43 1 53 1 9 0 28 0 42 -1 14 0 39 -1
55 0 17 0 51 1 77 2 25 1 51 -2 57 -6 6 -3 11 -1 11 5 0 6 5 8 11 5 10 -7 83
-8 144 -2 17 1 42 -1 56 -4 15 -4 32 -3 39 1 7 4 26 4 41 0 17 -5 29 -5 29 0
0 6 10 6 23 1 12 -5 31 -5 42 -1 11 4 29 4 40 0 11 -4 29 -4 40 0 11 4 29 4
41 0 11 -5 27 -4 34 0 8 5 18 6 22 3 11 -6 234 -7 245 0 4 3 8 -663 8 -1479 0
-1359 -1 -1485 -16 -1481 -9 2 -24 0 -33 -5 -9 -5 -16 -5 -16 0 0 10 -42 8
-59 -3 -6 -3 -11 -1 -11 5 0 7 -7 8 -17 3 -22 -10 -54 -10 -70 0 -6 4 -14 3
-18 -2 -3 -7 -15 -7 -29 -1 -13 5 -26 7 -29 4 -9 -9 -62 -11 -84 -2 -14 4 -23
4 -23 -2 0 -6 -9 -6 -25 0 -14 5 -25 6 -25 2 0 -9 -65 -6 -80 3 -6 3 -10 3
-10 -2 0 -9 -143 -8 -159 1 -5 4 -12 2 -16 -3 -3 -7 -15 -7 -29 -1 -13 5 -26
6 -29 4 -9 -9 -71 -10 -84 -1 -6 4 -14 4 -17 -2 -4 -7 -15 -7 -30 -1 -13 5
-26 7 -29 4 -9 -9 -62 -11 -84 -2 -14 4 -23 4 -23 -2 0 -6 -9 -6 -25 0 -14 5
-25 6 -25 2 0 -9 -65 -6 -80 3 -6 3 -10 2 -10 -2 0 -9 -94 -7 -117 2 -7 2 -15
0 -18 -5 -4 -7 -13 -6 -26 0 -10 6 -19 7 -19 3 0 -4 -11 -8 -25 -8 -14 0 -25
4 -25 8 0 4 -8 4 -17 0 -22 -10 -54 -10 -70 0 -6 4 -14 3 -18 -2 -3 -7 -15 -7
-29 -1 -13 5 -26 7 -29 4 -9 -9 -62 -11 -84 -2 -14 4 -23 4 -23 -2 0 -6 -9 -6
-25 0 -14 5 -25 6 -25 2 0 -9 -65 -6 -80 3 -6 3 -10 3 -10 -2 0 -9 -143 -8
-159 1 -5 4 -12 2 -16 -3 -3 -7 -15 -7 -29 -1 -13 5 -26 7 -29 4 -9 -9 -62
-11 -84 -2 -13 4 -23 4 -23 0 0 -4 -13 -7 -29 -7 -16 0 -27 3 -24 7 2 5 -7 4
-21 -2 -16 -6 -27 -6 -31 0 -4 7 -13 6 -25 0 -13 -7 -21 -7 -25 0 -4 7 -12 7
-25 0 -11 -6 -21 -6 -24 -1 -3 5 -21 6 -39 1 -18 -4 -43 -3 -55 1 -12 5 -22 5
-22 1 0 -4 -13 -7 -29 -7 -16 0 -27 3 -24 7 2 5 -7 4 -21 -2 -16 -6 -27 -6
-31 0 -4 7 -13 6 -25 0 -13 -7 -21 -7 -25 0 -4 7 -12 7 -25 0 -10 -6 -21 -6
-24 -2 -3 5 -26 6 -51 2 -25 -4 -48 -3 -51 1 -2 5 -16 4 -29 -1 -16 -6 -25 -6
-25 0 0 5 -8 6 -17 3 -21 -8 -66 -9 -79 -1 -5 4 -8 558 -7 1475 0 807 1 1472
2 1477 1 4 12 6 25 4 14 -3 29 -2 34 1 13 8 127 5 141 -3z"/>
</g>
</svg>
